<svg xmlns="http://www.w3.org/2000/svg" viewBox="0 0 750 500"><g id="freepik--Floor--inject-76"><line x1="44.48" y1="454.25" x2="723" y2="454.25" style="fill:none;stroke:#263238;stroke-linecap:round;stroke-linejoin:round"></line></g><g id="freepik--Plants--inject-76"><path d="M143.51,125.5c.08,0,1.44-6.12,1.49-6.52.47-4.62-1.32-13.82-6.08-15.92a6.15,6.15,0,0,0-8.24,4c-1.13,3.5.61,7.67,2.6,10.51C135.61,120.91,143.5,125.5,143.51,125.5Z" style="fill:#263238"></path><path d="M51.17,126.76c3.78,1.49,12.9,1,12.9,1s-2.17-5.9-2.35-6.25c-2.15-4.12-8.73-10.81-13.85-9.93a6.16,6.16,0,0,0-4.67,7.88C44.19,123,47.94,125.48,51.17,126.76Z" style="fill:#263238"></path><path d="M55.25,153.07c3.89.43,11.94-2.22,12.58-2.44a109.5,109.5,0,0,0,5.42,13.49c1.22,2.56,2.52,5.09,3.85,7.61-.78-1.06-1.49-2-1.6-2.12-3.16-3.41-11.27-8.12-16-5.92a6.16,6.16,0,0,0-2.42,8.83c1.88,3.16,6.17,4.6,9.62,5s10.41-1.73,12.24-2.32l1.55,2.89c2.53,4.62,5.07,9.21,7.42,13.79.83,1.61,1.58,3.23,2.35,4.84-.7-.94-1.29-1.73-1.39-1.84-3.16-3.4-11.27-8.12-16-5.92a6.16,6.16,0,0,0-2.42,8.84c1.88,3.15,6.17,4.59,9.62,5s9.74-1.53,11.91-2.22c.73,1.68,1.46,3.36,2.1,5,.4,1.14.88,2.21,1.22,3.38l1.09,3.43c.61,2.2,1.25,4.47,1.8,6.63.38,1.5.73,2.94,1.08,4.39-.81-1.62-2.46-4.75-2.62-5-2.61-3.84-9.91-9.74-14.9-8.27a6.15,6.15,0,0,0-3.73,8.36c1.38,3.4,5.4,5.48,8.75,6.37,3.69,1,11.74-.31,12.74-.48.57,2.39,1.1,4.73,1.56,6.94,1.63,7.65,2.7,14.09,3.39,18.6l3.52-.12c0-.14,0-.26-.07-.4-.79-4.55-2-11-3.83-18.75-.57-2.44-1.22-5-1.92-7.68a67.39,67.39,0,0,0,7-3.6c2.76,2.79,9.7,5.92,10.59,6.32-.84,2.31-1.69,4.56-2.52,6.66-2.87,7.28-5.53,13.24-7.45,17.39l3.87-.14c1.77-4.11,4-9.61,6.46-16.15.87-2.35,1.75-4.87,2.63-7.47,1,.17,9,1.51,12.74.53,3.35-.88,7.38-2.94,8.78-6.33a6.15,6.15,0,0,0-3.7-8.38c-5-1.48-12.3,4.38-14.93,8.21-.15.22-1.56,2.86-2.42,4.54.36-1.06.71-2.09,1.07-3.19.71-2.17,1.35-4.36,2-6.71.3-1.15.61-2.3.91-3.47s.53-2.42.8-3.64c.57-2.83,1-5.74,1.39-8.67,1.9.62,8.69,2.71,12.16,2.35s7.74-1.79,9.63-4.94a6.15,6.15,0,0,0-2.38-8.84c-4.7-2.22-12.83,2.46-16,5.85-.2.21-2.21,2.9-3.28,4.4.22-1.76.44-3.53.6-5.32.45-5.17.76-10.43,1.08-15.67.1-1.6.22-3.2.33-4.8.67.23,8.69,2.89,12.57,2.48,3.45-.36,7.74-1.79,9.63-4.93a6.14,6.14,0,0,0-2.38-8.84c-4.7-2.22-12.83,2.46-16,5.85-.24.26-3.12,4.13-3.8,5.15.25-3.53.52-7,.94-10.48a109.84,109.84,0,0,1,2.51-13.83c.32.1,8.67,2.92,12.64,2.5,3.45-.36,7.74-1.79,9.64-4.93A6.17,6.17,0,0,0,155,136c-4.71-2.22-12.83,2.47-16,5.86-.21.22-2.4,3.17-3.41,4.6l-.27-.13a78.7,78.7,0,0,1,5-13.23c1.1-2.35,2.28-4.54,3.48-6.64,1.51.68,8.4,3.73,12,3.75,3.47,0,7.89-.93,10.12-3.85a6.15,6.15,0,0,0-1.4-9.05c-4.43-2.72-13,1-16.54,4.06-.2.17-2,2.05-3.23,3.45.56-.94,1.12-1.93,1.67-2.82,2.05-3.35,4.15-6.29,6-8.88,1.08-1.46,2.08-2.77,3-4,1.82-.09,9.17-.58,12.33-2.2s6.58-4.46,7.21-8.08a6.15,6.15,0,0,0-5.41-7.39c-5.19-.37-11.08,6.93-12.82,11.24-.15.37-1.83,6.46-1.73,6.45h.11c-.94,1.14-1.93,2.38-3,3.76-1.93,2.55-4.1,5.46-6.24,8.77a111.05,111.05,0,0,0-6.39,11A80,80,0,0,0,134.18,146a.94.94,0,0,0,0,.16c0-1.52-.25-5.78-.3-6.1-.76-4.58-4.92-13-10.06-13.75a6.15,6.15,0,0,0-6.89,6c-.17,3.67,2.61,7.23,5.28,9.45,3,2.5,11.18,4.74,11.84,4.92a107.47,107.47,0,0,0-2.92,14.24c-.4,2.79-.72,5.62-1,8.47-.06-1.32-.13-2.5-.16-2.66-.76-4.58-4.92-13-10.06-13.75a6.15,6.15,0,0,0-6.89,6c-.17,3.67,2.61,7.24,5.28,9.45s9.64,4.3,11.48,4.82c-.09,1.09-.2,2.18-.29,3.27C129,181.8,128.6,187,128,192.14c-.2,1.81-.46,3.58-.71,5.35-.06-1.17-.12-2.16-.15-2.31-.76-4.58-4.92-13-10.06-13.75a6.15,6.15,0,0,0-6.89,6c-.17,3.66,2.61,7.23,5.28,9.45s9,4.09,11.15,4.72c-.31,1.8-.63,3.61-1,5.35-.3,1.17-.49,2.33-.85,3.5s-.66,2.31-1,3.45c-.71,2.18-1.42,4.42-2.16,6.53-.51,1.46-1,2.85-1.52,4.25.21-1.79.57-5.31.56-5.61a23.83,23.83,0,0,0-3.61-11.5,6.89,6.89,0,0,0-.13-1.36,6.16,6.16,0,0,0-7.71-4.95c-5,1.51-7.85,10.44-7.92,15.08,0,.28.28,3.26.49,5.13-.29-1.08-.56-2.14-.88-3.25-.6-2.2-1.27-4.38-2-6.73l-1.16-3.4c-.36-1.14-.89-2.31-1.34-3.47-1.09-2.68-2.32-5.35-3.62-8,1.92-.54,8.74-2.53,11.43-4.75s5.47-5.76,5.31-9.43a6.14,6.14,0,0,0-6.86-6.06c-5.15.74-9.34,9.13-10.12,13.71,0,.28-.24,3.63-.31,5.47-.79-1.59-1.58-3.18-2.43-4.76-2.48-4.57-5.12-9.12-7.74-13.67-.81-1.39-1.59-2.79-2.38-4.19.69-.18,8.84-2.38,11.85-4.86,2.68-2.21,5.47-5.76,5.32-9.43A6.15,6.15,0,0,0,90,152.63c-5.14.74-9.34,9.13-10.11,13.71-.06.34-.33,5.16-.33,6.39-1.74-3.08-3.45-6.16-5-9.26a109.17,109.17,0,0,1-5.54-12.92c.32-.09,8.85-2.34,11.93-4.89,2.67-2.2,5.47-5.76,5.31-9.43a6.14,6.14,0,0,0-6.86-6.06c-5.15.74-9.34,9.13-10.12,13.71,0,.3-.26,4-.31,5.72l-.3,0a80,80,0,0,1-3.13-13.78c-.38-2.57-.6-5.05-.76-7.47,1.63-.26,9.07-1.51,12.09-3.5s6.07-5.12,6.32-8.79a6.16,6.16,0,0,0-6.16-6.78c-5.19.18-10.28,8.06-11.56,12.52-.07.24-.5,2.79-.79,4.65,0-1.09-.13-2.22-.16-3.27-.13-3.93,0-7.53.12-10.73.09-1.81.21-3.45.34-5,1.46-1.08,7.32-5.54,9.07-8.64s3-7.34,1.55-10.71A6.16,6.16,0,0,0,67,85c-4.53,2.55-5.41,11.89-4.49,16.44.08.39,2,6.4,2.12,6.34l.08-.06c-.15,1.47-.29,3-.42,4.78-.2,3.2-.4,6.81-.35,10.76A107.11,107.11,0,0,0,64.73,136a79.67,79.67,0,0,0,2.86,14,1.66,1.66,0,0,0,.06.16c-.87-1.26-3.4-4.69-3.62-4.93-3.16-3.4-11.27-8.12-16-5.92a6.16,6.16,0,0,0-2.42,8.84C47.51,151.25,51.8,152.69,55.25,153.07Z" style="fill:#263238"></path><path d="M51.17,126.76c3.78,1.49,12.9,1,12.9,1s-2.17-5.9-2.35-6.25c-2.15-4.12-8.73-10.81-13.85-9.93a6.16,6.16,0,0,0-4.67,7.88C44.19,123,47.94,125.48,51.17,126.76Z" style="fill:#263238;opacity:0.30000000000000004"></path><path d="M143.51,125.5c.08,0,1.44-6.12,1.49-6.52.47-4.62-1.32-13.82-6.08-15.92a6.15,6.15,0,0,0-8.24,4c-1.13,3.5.61,7.67,2.6,10.51C135.61,120.91,143.5,125.5,143.51,125.5Z" style="fill:#263238;opacity:0.30000000000000004"></path><path d="M55.25,153.07c3.89.43,11.94-2.22,12.58-2.44a109.5,109.5,0,0,0,5.42,13.49c1.22,2.56,2.52,5.09,3.85,7.61-.78-1.06-1.49-2-1.6-2.12-3.16-3.41-11.27-8.12-16-5.92a6.16,6.16,0,0,0-2.42,8.83c1.88,3.16,6.17,4.6,9.62,5s10.41-1.73,12.24-2.32l1.55,2.89c2.53,4.62,5.07,9.21,7.42,13.79.83,1.61,1.58,3.23,2.35,4.84-.7-.94-1.29-1.73-1.39-1.84-3.16-3.4-11.27-8.12-16-5.92a6.16,6.16,0,0,0-2.42,8.84c1.88,3.15,6.17,4.59,9.62,5s9.74-1.53,11.91-2.22c.73,1.68,1.46,3.36,2.1,5,.4,1.14.88,2.21,1.22,3.38l1.09,3.43c.61,2.2,1.25,4.47,1.8,6.63.38,1.5.73,2.94,1.08,4.39-.81-1.62-2.46-4.75-2.62-5-2.61-3.84-9.91-9.74-14.9-8.27a6.15,6.15,0,0,0-3.73,8.36c1.38,3.4,5.4,5.48,8.75,6.37,3.69,1,11.74-.31,12.74-.48.57,2.39,1.1,4.73,1.56,6.94,1.63,7.65,2.7,14.09,3.39,18.6l3.52-.12c0-.14,0-.26-.07-.4-.79-4.55-2-11-3.83-18.75-.57-2.44-1.22-5-1.92-7.68a67.39,67.39,0,0,0,7-3.6c2.76,2.79,9.7,5.92,10.59,6.32-.84,2.31-1.69,4.56-2.52,6.66-2.87,7.28-5.53,13.24-7.45,17.39l3.87-.14c1.77-4.11,4-9.61,6.46-16.15.87-2.35,1.75-4.87,2.63-7.47,1,.17,9,1.51,12.74.53,3.35-.88,7.38-2.94,8.78-6.33a6.15,6.15,0,0,0-3.7-8.38c-5-1.48-12.3,4.38-14.93,8.21-.15.22-1.56,2.86-2.42,4.54.36-1.06.71-2.09,1.07-3.19.71-2.17,1.35-4.36,2-6.71.3-1.15.61-2.3.91-3.47s.53-2.42.8-3.64c.57-2.83,1-5.74,1.39-8.67,1.9.62,8.69,2.71,12.16,2.35s7.74-1.79,9.63-4.94a6.15,6.15,0,0,0-2.38-8.84c-4.7-2.22-12.83,2.46-16,5.85-.2.21-2.21,2.9-3.28,4.4.22-1.76.44-3.53.6-5.32.45-5.17.76-10.43,1.08-15.67.1-1.6.22-3.2.33-4.8.67.23,8.69,2.89,12.57,2.48,3.45-.36,7.74-1.79,9.63-4.93a6.14,6.14,0,0,0-2.38-8.84c-4.7-2.22-12.83,2.46-16,5.85-.24.26-3.12,4.13-3.8,5.15.25-3.53.52-7,.94-10.48a109.84,109.84,0,0,1,2.51-13.83c.32.1,8.67,2.92,12.64,2.5,3.45-.36,7.74-1.79,9.64-4.93A6.17,6.17,0,0,0,155,136c-4.71-2.22-12.83,2.47-16,5.86-.21.22-2.4,3.17-3.41,4.6l-.27-.13a78.7,78.7,0,0,1,5-13.23c1.1-2.35,2.28-4.54,3.48-6.64,1.51.68,8.4,3.73,12,3.75,3.47,0,7.89-.93,10.12-3.85a6.15,6.15,0,0,0-1.4-9.05c-4.43-2.72-13,1-16.54,4.06-.2.17-2,2.05-3.23,3.45.56-.94,1.12-1.93,1.67-2.82,2.05-3.35,4.15-6.29,6-8.88,1.08-1.46,2.08-2.77,3-4,1.82-.09,9.17-.58,12.33-2.2s6.58-4.46,7.21-8.08a6.15,6.15,0,0,0-5.41-7.39c-5.19-.37-11.08,6.93-12.82,11.24-.15.37-1.83,6.46-1.73,6.45h.11c-.94,1.14-1.93,2.38-3,3.76-1.93,2.55-4.1,5.46-6.24,8.77a111.05,111.05,0,0,0-6.39,11A80,80,0,0,0,134.18,146a.94.94,0,0,0,0,.16c0-1.52-.25-5.78-.3-6.1-.76-4.58-4.92-13-10.06-13.75a6.15,6.15,0,0,0-6.89,6c-.17,3.67,2.61,7.23,5.28,9.45,3,2.5,11.18,4.74,11.84,4.92a107.47,107.47,0,0,0-2.92,14.24c-.4,2.79-.72,5.62-1,8.47-.06-1.32-.13-2.5-.16-2.66-.76-4.58-4.92-13-10.06-13.75a6.15,6.15,0,0,0-6.89,6c-.17,3.67,2.61,7.24,5.28,9.45s9.64,4.3,11.48,4.82c-.09,1.09-.2,2.18-.29,3.27C129,181.8,128.6,187,128,192.14c-.2,1.81-.46,3.58-.71,5.35-.06-1.17-.12-2.16-.15-2.31-.76-4.58-4.92-13-10.06-13.75a6.15,6.15,0,0,0-6.89,6c-.17,3.66,2.61,7.23,5.28,9.45s9,4.09,11.15,4.72c-.31,1.8-.63,3.61-1,5.35-.3,1.17-.49,2.33-.85,3.5s-.66,2.31-1,3.45c-.71,2.18-1.42,4.42-2.16,6.53-.51,1.46-1,2.85-1.52,4.25.21-1.79.57-5.31.56-5.61a23.83,23.83,0,0,0-3.61-11.5,6.89,6.89,0,0,0-.13-1.36,6.16,6.16,0,0,0-7.71-4.95c-5,1.51-7.85,10.44-7.92,15.08,0,.28.28,3.26.49,5.13-.29-1.08-.56-2.14-.88-3.25-.6-2.2-1.27-4.38-2-6.73l-1.16-3.4c-.36-1.14-.89-2.31-1.34-3.47-1.09-2.68-2.32-5.35-3.62-8,1.92-.54,8.74-2.53,11.43-4.75s5.47-5.76,5.31-9.43a6.14,6.14,0,0,0-6.86-6.06c-5.15.74-9.34,9.13-10.12,13.71,0,.28-.24,3.63-.31,5.47-.79-1.59-1.58-3.18-2.43-4.76-2.48-4.57-5.12-9.12-7.74-13.67-.81-1.39-1.59-2.79-2.38-4.19.69-.18,8.84-2.38,11.85-4.86,2.68-2.21,5.47-5.76,5.32-9.43A6.15,6.15,0,0,0,90,152.63c-5.14.74-9.34,9.13-10.11,13.71-.06.34-.33,5.16-.33,6.39-1.74-3.08-3.45-6.16-5-9.26a109.17,109.17,0,0,1-5.54-12.92c.32-.09,8.85-2.34,11.93-4.89,2.67-2.2,5.47-5.76,5.31-9.43a6.14,6.14,0,0,0-6.86-6.06c-5.15.74-9.34,9.13-10.12,13.71,0,.3-.26,4-.31,5.72l-.3,0a80,80,0,0,1-3.13-13.78c-.38-2.57-.6-5.05-.76-7.47,1.63-.26,9.07-1.51,12.09-3.5s6.07-5.12,6.32-8.79a6.16,6.16,0,0,0-6.16-6.78c-5.19.18-10.28,8.06-11.56,12.52-.07.24-.5,2.79-.79,4.65,0-1.09-.13-2.22-.16-3.27-.13-3.93,0-7.53.12-10.73.09-1.81.21-3.45.34-5,1.46-1.08,7.32-5.54,9.07-8.64s3-7.34,1.55-10.71A6.16,6.16,0,0,0,67,85c-4.53,2.55-5.41,11.89-4.49,16.44.08.39,2,6.4,2.12,6.34l.08-.06c-.15,1.47-.29,3-.42,4.78-.2,3.2-.4,6.81-.35,10.76A107.11,107.11,0,0,0,64.73,136a79.67,79.67,0,0,0,2.86,14,1.66,1.66,0,0,0,.06.16c-.87-1.26-3.4-4.69-3.62-4.93-3.16-3.4-11.27-8.12-16-5.92a6.16,6.16,0,0,0-2.42,8.84C47.51,151.25,51.8,152.69,55.25,153.07Z" style="fill:#263238;opacity:0.30000000000000004"></path><path d="M127.51,329.29c.08,0,1.44-6.12,1.49-6.52.47-4.62-1.32-13.82-6.08-15.92a6.15,6.15,0,0,0-8.24,4c-1.13,3.49.61,7.67,2.6,10.51C119.61,324.7,127.5,329.29,127.51,329.29Z" style="fill:#263238"></path><path d="M35.17,330.54c3.78,1.5,12.9,1,12.9,1s-2.17-5.9-2.35-6.26c-2.15-4.11-8.73-10.8-13.85-9.92a6.15,6.15,0,0,0-4.67,7.88C28.19,326.75,31.94,329.27,35.17,330.54Z" style="fill:#263238"></path><path d="M39.25,356.86c3.89.42,11.94-2.22,12.58-2.44a110.13,110.13,0,0,0,5.42,13.49c1.22,2.55,2.52,5.09,3.85,7.61-.78-1.06-1.49-2-1.6-2.12-3.16-3.41-11.27-8.12-16-5.92a6.15,6.15,0,0,0-2.42,8.83c1.88,3.15,6.17,4.59,9.62,5S61.13,379.55,63,379l1.55,2.89c2.53,4.61,5.07,9.2,7.42,13.78.83,1.62,1.58,3.24,2.35,4.85-.7-.94-1.29-1.73-1.39-1.84-3.16-3.4-11.27-8.12-16-5.92a6.16,6.16,0,0,0-2.42,8.84c1.88,3.15,6.17,4.59,9.62,5S73.85,405,76,404.31c.73,1.68,1.46,3.36,2.1,5,.4,1.15.88,2.22,1.22,3.39s.73,2.3,1.09,3.43c.61,2.2,1.25,4.47,1.8,6.63.38,1.5.73,2.94,1.08,4.39-.81-1.62-2.46-4.75-2.62-5-2.61-3.85-9.91-9.74-14.9-8.28a6.16,6.16,0,0,0-3.73,8.37c1.38,3.4,5.4,5.47,8.75,6.37,3.69,1,11.74-.32,12.74-.49.57,2.4,1.1,4.74,1.56,7,1.63,7.65,2.7,14.09,3.39,18.6l3.52-.12c0-.14,0-.26-.07-.4-.79-4.56-2-11-3.83-18.75-.57-2.44-1.22-5-1.92-7.69a64.54,64.54,0,0,0,7-3.59c2.76,2.79,9.7,5.92,10.59,6.32-.84,2.31-1.69,4.55-2.52,6.66-2.87,7.28-5.53,13.24-7.45,17.38l3.87-.13c1.77-4.11,4-9.61,6.46-16.16.87-2.34,1.75-4.87,2.63-7.47,1,.17,9,1.52,12.74.54,3.35-.88,7.38-2.94,8.78-6.33a6.15,6.15,0,0,0-3.7-8.38c-5-1.49-12.3,4.37-14.93,8.21-.15.22-1.56,2.86-2.42,4.54.36-1.06.71-2.09,1.07-3.19.71-2.17,1.35-4.36,2-6.71.3-1.15.61-2.31.91-3.48s.53-2.41.8-3.63c.57-2.84,1-5.74,1.39-8.67,1.9.61,8.69,2.71,12.16,2.34s7.74-1.78,9.63-4.93a6.15,6.15,0,0,0-2.38-8.84c-4.7-2.22-12.83,2.46-16,5.85-.2.21-2.21,2.9-3.28,4.4.22-1.77.44-3.53.6-5.32.45-5.18.76-10.43,1.08-15.67.1-1.6.22-3.2.33-4.8.67.23,8.69,2.89,12.57,2.48,3.45-.36,7.74-1.79,9.63-4.93a6.16,6.16,0,0,0-2.38-8.85c-4.7-2.22-12.83,2.47-16,5.86-.24.25-3.12,4.13-3.8,5.15.25-3.53.52-7,.94-10.48a110.33,110.33,0,0,1,2.51-13.84c.32.11,8.67,2.93,12.64,2.51,3.45-.37,7.74-1.79,9.64-4.93A6.17,6.17,0,0,0,139,339.8c-4.71-2.22-12.83,2.47-16,5.86-.21.22-2.4,3.17-3.41,4.59l-.27-.12a78.7,78.7,0,0,1,5-13.23c1.1-2.35,2.28-4.54,3.48-6.65,1.51.69,8.4,3.74,12,3.76,3.47,0,7.89-.93,10.12-3.85a6.15,6.15,0,0,0-1.4-9.05c-4.43-2.72-13,1-16.54,4.06-.2.17-2,2.05-3.23,3.44.56-.94,1.12-1.92,1.67-2.81,2.05-3.35,4.15-6.29,6-8.88,1.08-1.47,2.08-2.77,3-4,1.82-.1,9.17-.58,12.33-2.2s6.58-4.46,7.21-8.08a6.15,6.15,0,0,0-5.41-7.39c-5.19-.37-11.08,6.93-12.82,11.23-.15.38-1.83,6.47-1.73,6.46h.11c-.94,1.14-1.93,2.38-3,3.75-1.93,2.56-4.1,5.46-6.23,8.78a108,108,0,0,0-6.4,11,80.28,80.28,0,0,0-5.33,13.23,1.36,1.36,0,0,0,0,.17c0-1.52-.25-5.78-.3-6.1-.76-4.59-4.92-13-10.06-13.76a6.16,6.16,0,0,0-6.89,6c-.17,3.67,2.61,7.23,5.28,9.45,3,2.5,11.18,4.74,11.84,4.91a107.8,107.8,0,0,0-2.92,14.24c-.4,2.8-.72,5.63-1,8.47-.06-1.31-.13-2.49-.16-2.65-.76-4.58-4.92-13-10.06-13.75a6.15,6.15,0,0,0-6.89,6c-.17,3.67,2.61,7.23,5.28,9.45s9.64,4.3,11.48,4.82c-.09,1.09-.2,2.18-.29,3.27-.44,5.24-.85,10.47-1.42,15.58-.2,1.8-.46,3.57-.71,5.34-.06-1.17-.12-2.15-.15-2.3-.76-4.58-4.92-13-10.06-13.75a6.15,6.15,0,0,0-6.89,6c-.17,3.67,2.61,7.24,5.28,9.46s9,4.09,11.15,4.71c-.31,1.81-.63,3.62-1,5.35-.3,1.18-.49,2.34-.85,3.5s-.66,2.32-1,3.46c-.71,2.17-1.42,4.42-2.16,6.52-.51,1.47-1,2.86-1.52,4.26.21-1.79.57-5.31.56-5.61a23.83,23.83,0,0,0-3.61-11.5A6.89,6.89,0,0,0,101,410a6.16,6.16,0,0,0-7.71-5c-5,1.51-7.85,10.44-7.92,15.08,0,.28.28,3.25.49,5.13-.29-1.09-.56-2.14-.88-3.25-.6-2.2-1.27-4.38-2-6.73-.38-1.13-.77-2.26-1.16-3.4s-.89-2.31-1.34-3.47c-1.09-2.68-2.32-5.35-3.62-8,1.92-.54,8.74-2.54,11.43-4.75s5.47-5.77,5.31-9.43a6.16,6.16,0,0,0-6.86-6.07c-5.15.75-9.34,9.14-10.12,13.72,0,.28-.24,3.63-.31,5.47-.79-1.59-1.58-3.18-2.43-4.76-2.48-4.57-5.12-9.12-7.74-13.67-.81-1.39-1.59-2.79-2.38-4.19.69-.18,8.84-2.38,11.85-4.86,2.68-2.21,5.47-5.76,5.32-9.43A6.15,6.15,0,0,0,74,356.42c-5.14.74-9.34,9.13-10.11,13.71-.06.34-.33,5.16-.33,6.39-1.74-3.08-3.45-6.16-5-9.26a110,110,0,0,1-5.54-12.93c.32-.08,8.85-2.34,11.93-4.88,2.67-2.21,5.47-5.76,5.31-9.43A6.14,6.14,0,0,0,63.43,334c-5.15.74-9.34,9.13-10.12,13.71-.05.3-.26,4-.31,5.72l-.3,0a80.21,80.21,0,0,1-3.13-13.78c-.38-2.58-.6-5-.76-7.47,1.63-.26,9.07-1.52,12.09-3.5s6.07-5.13,6.32-8.79a6.15,6.15,0,0,0-6.16-6.78c-5.19.18-10.28,8.05-11.56,12.52-.07.24-.5,2.79-.79,4.65-.05-1.09-.13-2.22-.16-3.27-.13-3.93,0-7.53.12-10.73.09-1.81.21-3.45.34-5,1.46-1.08,7.32-5.54,9.07-8.64s3-7.35,1.55-10.71A6.15,6.15,0,0,0,51,288.76c-4.53,2.55-5.41,11.89-4.49,16.44.08.39,2,6.4,2.12,6.34l.08-.06c-.15,1.47-.29,3-.42,4.78-.2,3.2-.4,6.81-.35,10.76a106.94,106.94,0,0,0,.75,12.73,79.49,79.49,0,0,0,2.86,14,1.15,1.15,0,0,0,.06.17c-.87-1.26-3.4-4.69-3.62-4.93-3.16-3.4-11.27-8.12-16-5.92a6.15,6.15,0,0,0-2.42,8.83C31.51,355,35.8,356.48,39.25,356.86Z" style="fill:#263238"></path><path d="M35.17,330.54c3.78,1.5,12.9,1,12.9,1s-2.17-5.9-2.35-6.26c-2.15-4.11-8.73-10.8-13.85-9.92a6.15,6.15,0,0,0-4.67,7.88C28.19,326.75,31.94,329.27,35.17,330.54Z" style="fill:#263238;opacity:0.30000000000000004"></path><path d="M127.51,329.29c.08,0,1.44-6.12,1.49-6.52.47-4.62-1.32-13.82-6.08-15.92a6.15,6.15,0,0,0-8.24,4c-1.13,3.49.61,7.67,2.6,10.51C119.61,324.7,127.5,329.29,127.51,329.29Z" style="fill:#263238;opacity:0.30000000000000004"></path><path d="M39.25,356.86c3.89.42,11.94-2.22,12.58-2.44a110.13,110.13,0,0,0,5.42,13.49c1.22,2.55,2.52,5.09,3.85,7.61-.78-1.06-1.49-2-1.6-2.12-3.16-3.41-11.27-8.12-16-5.92a6.15,6.15,0,0,0-2.42,8.83c1.88,3.15,6.17,4.59,9.62,5S61.13,379.55,63,379l1.55,2.89c2.53,4.61,5.07,9.2,7.42,13.78.83,1.62,1.58,3.24,2.35,4.85-.7-.94-1.29-1.73-1.39-1.84-3.16-3.4-11.27-8.12-16-5.92a6.16,6.16,0,0,0-2.42,8.84c1.88,3.15,6.17,4.59,9.62,5S73.85,405,76,404.31c.73,1.68,1.46,3.36,2.1,5,.4,1.15.88,2.22,1.22,3.39s.73,2.3,1.09,3.43c.61,2.2,1.25,4.47,1.8,6.63.38,1.5.73,2.94,1.08,4.39-.81-1.62-2.46-4.75-2.62-5-2.61-3.85-9.91-9.74-14.9-8.28a6.16,6.16,0,0,0-3.73,8.37c1.38,3.4,5.4,5.47,8.75,6.37,3.69,1,11.74-.32,12.74-.49.57,2.4,1.1,4.74,1.56,7,1.63,7.65,2.7,14.09,3.39,18.6l3.52-.12c0-.14,0-.26-.07-.4-.79-4.56-2-11-3.83-18.75-.57-2.44-1.22-5-1.92-7.69a64.54,64.54,0,0,0,7-3.59c2.76,2.79,9.7,5.92,10.59,6.32-.84,2.31-1.69,4.55-2.52,6.66-2.87,7.28-5.53,13.24-7.45,17.38l3.87-.13c1.77-4.11,4-9.61,6.46-16.16.87-2.34,1.75-4.87,2.63-7.47,1,.17,9,1.52,12.74.54,3.35-.88,7.38-2.94,8.78-6.33a6.15,6.15,0,0,0-3.7-8.38c-5-1.49-12.3,4.37-14.93,8.21-.15.22-1.56,2.86-2.42,4.54.36-1.06.71-2.09,1.07-3.19.71-2.17,1.35-4.36,2-6.71.3-1.15.61-2.31.91-3.48s.53-2.41.8-3.63c.57-2.84,1-5.74,1.39-8.67,1.9.61,8.69,2.71,12.16,2.34s7.74-1.78,9.63-4.93a6.15,6.15,0,0,0-2.38-8.84c-4.7-2.22-12.83,2.46-16,5.85-.2.21-2.21,2.9-3.28,4.4.22-1.77.44-3.53.6-5.32.45-5.18.76-10.43,1.08-15.67.1-1.6.22-3.2.33-4.8.67.23,8.69,2.89,12.57,2.48,3.45-.36,7.74-1.79,9.63-4.93a6.16,6.16,0,0,0-2.38-8.85c-4.7-2.22-12.83,2.47-16,5.86-.24.25-3.12,4.13-3.8,5.15.25-3.53.52-7,.94-10.48a110.33,110.33,0,0,1,2.51-13.84c.32.11,8.67,2.93,12.64,2.51,3.45-.37,7.74-1.79,9.64-4.93A6.17,6.17,0,0,0,139,339.8c-4.71-2.22-12.83,2.47-16,5.86-.21.22-2.4,3.17-3.41,4.59l-.27-.12a78.7,78.7,0,0,1,5-13.23c1.1-2.35,2.28-4.54,3.48-6.65,1.51.69,8.4,3.74,12,3.76,3.47,0,7.89-.93,10.12-3.85a6.15,6.15,0,0,0-1.4-9.05c-4.43-2.72-13,1-16.54,4.06-.2.17-2,2.05-3.23,3.44.56-.94,1.12-1.92,1.67-2.81,2.05-3.35,4.15-6.29,6-8.88,1.08-1.47,2.08-2.77,3-4,1.82-.1,9.17-.58,12.33-2.2s6.58-4.46,7.21-8.08a6.15,6.15,0,0,0-5.41-7.39c-5.19-.37-11.08,6.93-12.82,11.23-.15.38-1.83,6.47-1.73,6.46h.11c-.94,1.14-1.93,2.38-3,3.75-1.93,2.56-4.1,5.46-6.23,8.78a108,108,0,0,0-6.4,11,80.28,80.28,0,0,0-5.33,13.23,1.36,1.36,0,0,0,0,.17c0-1.52-.25-5.78-.3-6.1-.76-4.59-4.92-13-10.06-13.76a6.16,6.16,0,0,0-6.89,6c-.17,3.67,2.61,7.23,5.28,9.45,3,2.5,11.18,4.74,11.84,4.91a107.8,107.8,0,0,0-2.92,14.24c-.4,2.8-.72,5.63-1,8.47-.06-1.31-.13-2.49-.16-2.65-.76-4.58-4.92-13-10.06-13.75a6.15,6.15,0,0,0-6.89,6c-.17,3.67,2.61,7.23,5.28,9.45s9.64,4.3,11.48,4.82c-.09,1.09-.2,2.18-.29,3.27-.44,5.24-.85,10.47-1.42,15.58-.2,1.8-.46,3.57-.71,5.34-.06-1.17-.12-2.15-.15-2.3-.76-4.58-4.92-13-10.06-13.75a6.15,6.15,0,0,0-6.89,6c-.17,3.67,2.61,7.24,5.28,9.46s9,4.09,11.15,4.71c-.31,1.81-.63,3.62-1,5.35-.3,1.18-.49,2.34-.85,3.5s-.66,2.32-1,3.46c-.71,2.17-1.42,4.42-2.16,6.52-.51,1.47-1,2.86-1.52,4.26.21-1.79.57-5.31.56-5.61a23.83,23.83,0,0,0-3.61-11.5A6.89,6.89,0,0,0,101,410a6.16,6.16,0,0,0-7.71-5c-5,1.51-7.85,10.44-7.92,15.08,0,.28.28,3.25.49,5.13-.29-1.09-.56-2.14-.88-3.25-.6-2.2-1.27-4.38-2-6.73-.38-1.13-.77-2.26-1.16-3.4s-.89-2.31-1.34-3.47c-1.09-2.68-2.32-5.35-3.62-8,1.92-.54,8.74-2.54,11.43-4.75s5.47-5.77,5.31-9.43a6.16,6.16,0,0,0-6.86-6.07c-5.15.75-9.34,9.14-10.12,13.72,0,.28-.24,3.63-.31,5.47-.79-1.59-1.58-3.18-2.43-4.76-2.48-4.57-5.12-9.12-7.74-13.67-.81-1.39-1.59-2.79-2.38-4.19.69-.18,8.84-2.38,11.85-4.86,2.68-2.21,5.47-5.76,5.32-9.43A6.15,6.15,0,0,0,74,356.42c-5.14.74-9.34,9.13-10.11,13.71-.06.34-.33,5.16-.33,6.39-1.74-3.08-3.45-6.16-5-9.26a110,110,0,0,1-5.54-12.93c.32-.08,8.85-2.34,11.93-4.88,2.67-2.21,5.47-5.76,5.31-9.43A6.14,6.14,0,0,0,63.43,334c-5.15.74-9.34,9.13-10.12,13.71-.05.3-.26,4-.31,5.72l-.3,0a80.21,80.21,0,0,1-3.13-13.78c-.38-2.58-.6-5-.76-7.47,1.63-.26,9.07-1.52,12.09-3.5s6.07-5.13,6.32-8.79a6.15,6.15,0,0,0-6.16-6.78c-5.19.18-10.28,8.05-11.56,12.52-.07.24-.5,2.79-.79,4.65-.05-1.09-.13-2.22-.16-3.27-.13-3.93,0-7.53.12-10.73.09-1.81.21-3.45.34-5,1.46-1.08,7.32-5.54,9.07-8.64s3-7.35,1.55-10.71A6.15,6.15,0,0,0,51,288.76c-4.53,2.55-5.41,11.89-4.49,16.44.08.39,2,6.4,2.12,6.34l.08-.06c-.15,1.47-.29,3-.42,4.78-.2,3.2-.4,6.81-.35,10.76a106.94,106.94,0,0,0,.75,12.73,79.49,79.49,0,0,0,2.86,14,1.15,1.15,0,0,0,.06.17c-.87-1.26-3.4-4.69-3.62-4.93-3.16-3.4-11.27-8.12-16-5.92a6.15,6.15,0,0,0-2.42,8.83C31.51,355,35.8,356.48,39.25,356.86Z" style="fill:#263238;opacity:0.30000000000000004"></path><path d="M692.27,377.75c.05,0,.89-3.78.92-4,.29-2.85-.81-8.53-3.75-9.83a3.81,3.81,0,0,0-5.09,2.47c-.7,2.16.38,4.74,1.6,6.49C687.39,374.91,692.27,377.75,692.27,377.75Z" style="fill:#263238"></path><path d="M635.26,378.52c2.34.92,8,.6,8,.6s-1.34-3.65-1.45-3.87c-1.33-2.54-5.39-6.67-8.55-6.12a3.79,3.79,0,0,0-2.88,4.86C631,376.18,633.27,377.73,635.26,378.52Z" style="fill:#263238"></path><path d="M637.78,394.76c2.4.27,7.38-1.37,7.77-1.5a68.69,68.69,0,0,0,3.35,8.33c.75,1.57,1.55,3.14,2.37,4.7-.48-.66-.92-1.24-1-1.32-2-2.1-7-5-9.87-3.65a3.79,3.79,0,0,0-1.49,5.45c1.16,2,3.81,2.84,5.93,3.07s6.43-1.07,7.56-1.43l1,1.79c1.56,2.84,3.13,5.68,4.58,8.5.51,1,1,2,1.45,3-.43-.59-.8-1.07-.86-1.14-1.95-2.1-7-5-9.86-3.65a3.8,3.8,0,0,0-1.5,5.45c1.16,1.95,3.81,2.84,5.94,3.07s6-.95,7.35-1.37c.45,1,.91,2.07,1.3,3.1.25.71.54,1.37.75,2.09s.45,1.42.67,2.12c.38,1.35.78,2.75,1.11,4.09.24.93.46,1.81.67,2.71-.5-1-1.51-2.93-1.62-3.08-1.61-2.37-6.11-6-9.19-5.11a3.8,3.8,0,0,0-2.3,5.17c.85,2.1,3.33,3.38,5.4,3.93,2.27.61,7.24-.2,7.86-.3.35,1.48.68,2.92,1,4.29,1,4.72,1.66,8.69,2.08,11.48l2.18-.08c0-.08,0-.16,0-.24-.49-2.81-1.24-6.82-2.37-11.58-.35-1.5-.75-3.1-1.18-4.74a41.33,41.33,0,0,0,4.31-2.22c1.71,1.72,6,3.65,6.54,3.9-.52,1.43-1,2.81-1.56,4.11-1.77,4.5-3.41,8.18-4.59,10.73l2.38-.08c1.1-2.54,2.5-5.93,4-10,.54-1.45,1.08-3,1.63-4.61.61.1,5.58.93,7.86.33,2.07-.55,4.56-1.82,5.42-3.91a3.8,3.8,0,0,0-2.28-5.18c-3.08-.91-7.6,2.71-9.22,5.07-.09.14-1,1.77-1.49,2.81.22-.66.44-1.29.65-2,.44-1.34.84-2.69,1.28-4.14.18-.71.37-1.43.56-2.15s.32-1.49.49-2.24c.35-1.75.62-3.55.86-5.36,1.17.38,5.36,1.68,7.5,1.45s4.78-1.1,5.95-3a3.8,3.8,0,0,0-1.47-5.46c-2.9-1.37-7.92,1.52-9.88,3.61-.12.13-1.36,1.79-2,2.72.13-1.09.27-2.18.36-3.29.29-3.19.47-6.44.67-9.67.06-1,.14-2,.21-3,.41.14,5.36,1.79,7.76,1.54,2.13-.23,4.78-1.11,5.94-3.05a3.79,3.79,0,0,0-1.47-5.46c-2.9-1.37-7.92,1.52-9.87,3.61-.15.16-1.93,2.55-2.35,3.18.15-2.17.32-4.34.58-6.47a67.88,67.88,0,0,1,1.55-8.54c.19.07,5.35,1.81,7.8,1.55,2.13-.22,4.78-1.1,5.95-3a3.79,3.79,0,0,0-1.47-5.46c-2.9-1.37-7.92,1.52-9.88,3.61-.13.14-1.48,2-2.11,2.84l-.16-.08a49,49,0,0,1,3.08-8.17c.68-1.45,1.41-2.8,2.15-4.1.93.42,5.19,2.31,7.42,2.32s4.87-.57,6.25-2.37a3.8,3.8,0,0,0-.87-5.59c-2.73-1.68-8,.64-10.21,2.5-.12.11-1.21,1.27-2,2.13.34-.58.69-1.19,1-1.74,1.27-2.07,2.56-3.88,3.71-5.48.67-.91,1.29-1.71,1.87-2.46,1.13-.06,5.67-.35,7.62-1.36s4.06-2.75,4.45-5a3.8,3.8,0,0,0-3.34-4.56c-3.2-.23-6.84,4.27-7.91,6.93-.1.23-1.13,4-1.07,4h.06c-.58.71-1.19,1.47-1.84,2.32-1.2,1.58-2.53,3.37-3.85,5.42a66.92,66.92,0,0,0-4,6.81,49.69,49.69,0,0,0-3.29,8.18.36.36,0,0,0,0,.1c0-.94-.16-3.57-.19-3.77-.47-2.83-3-8-6.21-8.49a3.8,3.8,0,0,0-4.25,3.73c-.11,2.26,1.61,4.46,3.25,5.83,1.86,1.55,6.91,2.93,7.31,3a68.38,68.38,0,0,0-1.8,8.79c-.25,1.73-.44,3.48-.61,5.23,0-.81-.08-1.53-.1-1.64-.47-2.82-3-8-6.21-8.49a3.81,3.81,0,0,0-4.26,3.73c-.1,2.26,1.61,4.47,3.26,5.84s6,2.65,7.09,3l-.18,2c-.27,3.23-.53,6.46-.88,9.62-.12,1.11-.28,2.2-.44,3.29,0-.72-.07-1.33-.09-1.42-.46-2.83-3-8-6.21-8.49a3.8,3.8,0,0,0-4.25,3.73c-.11,2.26,1.61,4.46,3.26,5.83s5.53,2.53,6.88,2.92c-.19,1.11-.39,2.23-.62,3.3-.18.73-.31,1.44-.53,2.16l-.6,2.13c-.44,1.35-.88,2.73-1.34,4-.31.91-.62,1.76-.94,2.63.14-1.11.36-3.28.35-3.46a14.65,14.65,0,0,0-2.23-7.11,3.83,3.83,0,0,0-.08-.83,3.79,3.79,0,0,0-4.75-3.06c-3.08.93-4.85,6.44-4.9,9.31,0,.17.18,2,.31,3.17-.18-.67-.35-1.32-.54-2-.38-1.36-.79-2.71-1.23-4.16-.24-.69-.47-1.39-.72-2.1s-.55-1.42-.82-2.14c-.67-1.65-1.44-3.3-2.24-4.94,1.19-.33,5.4-1.56,7.06-2.93s3.38-3.56,3.28-5.82a3.8,3.8,0,0,0-4.24-3.74c-3.18.46-5.77,5.64-6.25,8.46,0,.18-.14,2.25-.18,3.38-.49-1-1-2-1.51-2.94-1.53-2.82-3.16-5.63-4.78-8.44-.49-.86-1-1.72-1.46-2.58.42-.11,5.46-1.47,7.31-3,1.66-1.37,3.38-3.56,3.29-5.83a3.81,3.81,0,0,0-4.24-3.74c-3.18.46-5.77,5.64-6.25,8.47,0,.21-.2,3.18-.2,3.94-1.08-1.9-2.13-3.8-3.09-5.72a66.75,66.75,0,0,1-3.41-8c.19,0,5.45-1.45,7.36-3,1.65-1.36,3.37-3.55,3.28-5.82a3.8,3.8,0,0,0-4.24-3.74c-3.18.46-5.77,5.64-6.25,8.46,0,.19-.15,2.46-.19,3.53l-.18,0a49.13,49.13,0,0,1-1.93-8.51c-.24-1.59-.38-3.12-.47-4.61,1-.16,5.59-.94,7.46-2.16s3.75-3.16,3.9-5.43a3.8,3.8,0,0,0-3.8-4.18c-3.21.11-6.35,5-7.14,7.73,0,.15-.31,1.72-.48,2.87,0-.68-.09-1.37-.11-2-.08-2.43,0-4.65.08-6.62.06-1.13.13-2.14.21-3.08.9-.68,4.52-3.43,5.6-5.34s1.86-4.53,1-6.61a3.79,3.79,0,0,0-5.3-2c-2.8,1.57-3.35,7.33-2.78,10.14.05.25,1.26,3.95,1.31,3.92l0,0c-.09.91-.18,1.89-.26,2.95-.12,2-.25,4.21-.22,6.65a67,67,0,0,0,.47,7.86,49.18,49.18,0,0,0,1.76,8.63,1,1,0,0,1,0,.1c-.54-.78-2.1-2.9-2.24-3.05-2-2.1-7-5-9.86-3.65a3.79,3.79,0,0,0-1.49,5.45C633,393.64,635.65,394.53,637.78,394.76Z" style="fill:#263238"></path><path d="M635.26,378.52c2.34.92,8,.6,8,.6s-1.34-3.65-1.45-3.87c-1.33-2.54-5.39-6.67-8.55-6.12a3.79,3.79,0,0,0-2.88,4.86C631,376.18,633.27,377.73,635.26,378.52Z" style="fill:#263238;opacity:0.30000000000000004"></path><path d="M692.27,377.75c.05,0,.89-3.78.92-4,.29-2.85-.81-8.53-3.75-9.83a3.81,3.81,0,0,0-5.09,2.47c-.7,2.16.38,4.74,1.6,6.49C687.39,374.91,692.27,377.75,692.27,377.75Z" style="fill:#263238;opacity:0.30000000000000004"></path><path d="M637.78,394.76c2.4.27,7.38-1.37,7.77-1.5a68.69,68.69,0,0,0,3.35,8.33c.75,1.57,1.55,3.14,2.37,4.7-.48-.66-.92-1.24-1-1.32-2-2.1-7-5-9.87-3.65a3.79,3.79,0,0,0-1.49,5.45c1.16,2,3.81,2.84,5.93,3.07s6.43-1.07,7.56-1.43l1,1.79c1.56,2.84,3.13,5.68,4.58,8.5.51,1,1,2,1.45,3-.43-.59-.8-1.07-.86-1.14-1.95-2.1-7-5-9.86-3.65a3.8,3.8,0,0,0-1.5,5.45c1.16,1.95,3.81,2.84,5.94,3.07s6-.95,7.35-1.37c.45,1,.91,2.07,1.3,3.1.25.71.54,1.37.75,2.09s.45,1.42.67,2.12c.38,1.35.78,2.75,1.11,4.09.24.93.46,1.81.67,2.71-.5-1-1.51-2.93-1.62-3.08-1.61-2.37-6.11-6-9.19-5.11a3.8,3.8,0,0,0-2.3,5.17c.85,2.1,3.33,3.38,5.4,3.93,2.27.61,7.24-.2,7.86-.3.35,1.48.68,2.92,1,4.29,1,4.72,1.66,8.69,2.08,11.48l2.18-.08c0-.08,0-.16,0-.24-.49-2.81-1.24-6.82-2.37-11.58-.35-1.5-.75-3.1-1.18-4.74a41.33,41.33,0,0,0,4.31-2.22c1.71,1.72,6,3.65,6.54,3.9-.52,1.43-1,2.81-1.56,4.11-1.77,4.5-3.41,8.18-4.59,10.73l2.38-.08c1.1-2.54,2.5-5.93,4-10,.54-1.45,1.08-3,1.63-4.61.61.1,5.58.93,7.86.33,2.07-.55,4.56-1.82,5.42-3.91a3.8,3.8,0,0,0-2.28-5.18c-3.08-.91-7.6,2.71-9.22,5.07-.09.14-1,1.77-1.49,2.81.22-.66.44-1.29.65-2,.44-1.34.84-2.69,1.28-4.14.18-.71.37-1.43.56-2.15s.32-1.49.49-2.24c.35-1.75.62-3.55.86-5.36,1.17.38,5.36,1.68,7.5,1.45s4.78-1.1,5.95-3a3.8,3.8,0,0,0-1.47-5.46c-2.9-1.37-7.92,1.52-9.88,3.61-.12.13-1.36,1.79-2,2.72.13-1.09.27-2.18.36-3.29.29-3.19.47-6.44.67-9.67.06-1,.14-2,.21-3,.41.14,5.36,1.79,7.76,1.54,2.13-.23,4.78-1.11,5.94-3.05a3.79,3.79,0,0,0-1.47-5.46c-2.9-1.37-7.92,1.52-9.87,3.61-.15.16-1.93,2.55-2.35,3.18.15-2.17.32-4.34.58-6.47a67.88,67.88,0,0,1,1.55-8.54c.19.07,5.35,1.81,7.8,1.55,2.13-.22,4.78-1.1,5.95-3a3.79,3.79,0,0,0-1.47-5.46c-2.9-1.37-7.92,1.52-9.88,3.61-.13.14-1.48,2-2.11,2.84l-.16-.08a49,49,0,0,1,3.08-8.17c.68-1.45,1.41-2.8,2.15-4.1.93.42,5.19,2.31,7.42,2.32s4.87-.57,6.25-2.37a3.8,3.8,0,0,0-.87-5.59c-2.73-1.68-8,.64-10.21,2.5-.12.11-1.21,1.27-2,2.13.34-.58.69-1.19,1-1.74,1.27-2.07,2.56-3.88,3.71-5.48.67-.91,1.29-1.71,1.87-2.46,1.13-.06,5.67-.35,7.62-1.36s4.06-2.75,4.45-5a3.8,3.8,0,0,0-3.34-4.56c-3.2-.23-6.84,4.27-7.91,6.93-.1.23-1.13,4-1.07,4h.06c-.58.71-1.19,1.47-1.84,2.32-1.2,1.58-2.53,3.37-3.85,5.42a66.92,66.92,0,0,0-4,6.81,49.69,49.69,0,0,0-3.29,8.18.36.36,0,0,0,0,.1c0-.94-.16-3.57-.19-3.77-.47-2.83-3-8-6.21-8.49a3.8,3.8,0,0,0-4.25,3.73c-.11,2.26,1.61,4.46,3.25,5.83,1.86,1.55,6.91,2.93,7.31,3a68.38,68.38,0,0,0-1.8,8.79c-.25,1.73-.44,3.48-.61,5.23,0-.81-.08-1.53-.1-1.64-.47-2.82-3-8-6.21-8.49a3.81,3.81,0,0,0-4.26,3.73c-.1,2.26,1.61,4.47,3.26,5.84s6,2.65,7.09,3l-.18,2c-.27,3.23-.53,6.46-.88,9.62-.12,1.11-.28,2.2-.44,3.29,0-.72-.07-1.33-.09-1.42-.46-2.83-3-8-6.21-8.49a3.8,3.8,0,0,0-4.25,3.73c-.11,2.26,1.61,4.46,3.26,5.83s5.53,2.53,6.88,2.92c-.19,1.11-.39,2.23-.62,3.3-.18.73-.31,1.44-.53,2.16l-.6,2.13c-.44,1.35-.88,2.73-1.34,4-.31.91-.62,1.76-.94,2.63.14-1.11.36-3.28.35-3.46a14.65,14.65,0,0,0-2.23-7.11,3.83,3.83,0,0,0-.08-.83,3.79,3.79,0,0,0-4.75-3.06c-3.08.93-4.85,6.44-4.9,9.31,0,.17.18,2,.31,3.17-.18-.67-.35-1.32-.54-2-.38-1.36-.79-2.71-1.23-4.16-.24-.69-.47-1.39-.72-2.1s-.55-1.42-.82-2.14c-.67-1.65-1.44-3.3-2.24-4.94,1.19-.33,5.4-1.56,7.06-2.93s3.38-3.56,3.28-5.82a3.8,3.8,0,0,0-4.24-3.74c-3.18.46-5.77,5.64-6.25,8.46,0,.18-.14,2.25-.18,3.38-.49-1-1-2-1.51-2.94-1.53-2.82-3.16-5.63-4.78-8.44-.49-.86-1-1.72-1.46-2.58.42-.11,5.46-1.47,7.31-3,1.66-1.37,3.38-3.56,3.29-5.83a3.81,3.81,0,0,0-4.24-3.74c-3.18.46-5.77,5.64-6.25,8.47,0,.21-.2,3.18-.2,3.94-1.08-1.9-2.13-3.8-3.09-5.72a66.75,66.75,0,0,1-3.41-8c.19,0,5.45-1.45,7.36-3,1.65-1.36,3.37-3.55,3.28-5.82a3.8,3.8,0,0,0-4.24-3.74c-3.18.46-5.77,5.64-6.25,8.46,0,.19-.15,2.46-.19,3.53l-.18,0a49.13,49.13,0,0,1-1.93-8.51c-.24-1.59-.38-3.12-.47-4.61,1-.16,5.59-.94,7.46-2.16s3.75-3.16,3.9-5.43a3.8,3.8,0,0,0-3.8-4.18c-3.21.11-6.35,5-7.14,7.73,0,.15-.31,1.72-.48,2.87,0-.68-.09-1.37-.11-2-.08-2.43,0-4.65.08-6.62.06-1.13.13-2.14.21-3.08.9-.68,4.52-3.43,5.6-5.34s1.86-4.53,1-6.61a3.79,3.79,0,0,0-5.3-2c-2.8,1.57-3.35,7.33-2.78,10.14.05.25,1.26,3.95,1.31,3.92l0,0c-.09.91-.18,1.89-.26,2.95-.12,2-.25,4.21-.22,6.65a67,67,0,0,0,.47,7.86,49.18,49.18,0,0,0,1.76,8.63,1,1,0,0,1,0,.1c-.54-.78-2.1-2.9-2.24-3.05-2-2.1-7-5-9.86-3.65a3.79,3.79,0,0,0-1.49,5.45C633,393.64,635.65,394.53,637.78,394.76Z" style="fill:#263238;opacity:0.30000000000000004"></path></g><g id="freepik--Clouds--inject-76"><path d="M346.44,71.42c-5.63-3.07-8.19-.51-10.24-3.07s5.63-9.22-9.72-15.87c0,0-1-14.34-22-14.85s-15.35,14.34-21,17.92-7.17-2-12.8,1.53S267.61,67.83,263,68.86s-10.75-4.61-16.38-1-5.63,6.66-8.19,6.66-7.68-2-10.75,0S221,79.1,221,79.1H350.53S352.07,74.49,346.44,71.42Z" style="fill:#fff;stroke:#263238;stroke-linecap:round;stroke-linejoin:round"></path><path d="M89.78,65.59c-2.92-1.59-4.24-.27-5.3-1.59s2.91-4.77-5-8.22c0,0-.53-7.42-11.4-7.69s-8,7.43-10.87,9.28-3.71-1.06-6.63.8-1.59,5.56-4,6.09-5.57-2.38-8.49-.53-2.91,3.45-4.24,3.45-4-1.06-5.57,0-3.44,2.39-3.44,2.39H91.9S92.7,67.18,89.78,65.59Z" style="fill:#fff;stroke:#263238;stroke-linecap:round;stroke-linejoin:round"></path><path d="M221.78,140.59c-2.92-1.59-4.24-.27-5.3-1.59s2.91-4.77-5-8.22c0,0-.53-7.42-11.4-7.69s-7.95,7.43-10.87,9.28-3.71-1.06-6.63.8-1.59,5.56-4,6.09-5.57-2.38-8.49-.53-2.91,3.45-4.24,3.45-4-1.06-5.57,0-3.44,2.39-3.44,2.39H223.9S224.7,142.18,221.78,140.59Z" style="fill:#fff;stroke:#263238;stroke-linecap:round;stroke-linejoin:round"></path></g><g id="freepik--thecnical-drawing--inject-76"><rect x="72.48" y="162.25" width="416" height="292" style="fill:#fff;stroke:#263238;stroke-linecap:round;stroke-linejoin:round"></rect><rect x="80.06" y="168.24" width="400.83" height="280.03" style="fill:#fff;stroke:#263238;stroke-linecap:round;stroke-linejoin:round"></rect><polyline points="346.78 447.69 346.78 428.74 480.92 428.74" style="fill:#fff;stroke:#263238;stroke-linecap:round;stroke-linejoin:round"></polyline><line x1="347.4" y1="437.99" x2="480.58" y2="437.99" style="fill:#fff;stroke:#263238;stroke-linecap:round;stroke-linejoin:round"></line><line x1="370.98" y1="429.09" x2="370.98" y2="448.09" style="fill:#fff;stroke:#263238;stroke-linecap:round;stroke-linejoin:round"></line><line x1="417.81" y1="438.25" x2="417.81" y2="448.09" style="fill:#fff;stroke:#263238;stroke-linecap:round;stroke-linejoin:round"></line><rect x="144.94" y="297.77" width="296.88" height="93.68" style="fill:#fff;stroke:#263238;stroke-linecap:round;stroke-linejoin:round"></rect><polygon points="293.78 212.29 145.73 297.77 441.83 297.77 293.78 212.29" style="fill:#2563EB;stroke:#263238;stroke-linecap:round;stroke-linejoin:round"></polygon><rect x="280.07" y="290.16" width="73.47" height="101.3" style="fill:#fff;stroke:#263238;stroke-linecap:round;stroke-linejoin:round"></rect><rect x="280.07" y="290.16" width="73.47" height="4.31" style="fill:#263238;stroke:#263238;stroke-linecap:round;stroke-linejoin:round"></rect><path d="M335.15,391.46H298.46V328.14a18.34,18.34,0,0,1,18.34-18.35h0a18.34,18.34,0,0,1,18.35,18.35Z" style="fill:#263238;stroke:#263238;stroke-linecap:round;stroke-linejoin:round"></path><rect x="123.63" y="314.18" width="170.17" height="77.27" style="fill:#fff;stroke:#263238;stroke-linecap:round;stroke-linejoin:round"></rect><rect x="123.63" y="314.18" width="170.17" height="3.45" style="fill:#263238;stroke:#263238;stroke-linecap:round;stroke-linejoin:round"></rect><rect x="142.35" y="320.55" width="132.72" height="70.9" style="fill:#fff;stroke:#263238;stroke-linecap:round;stroke-linejoin:round"></rect><polygon points="208.71 257.65 118.4 309.79 299.03 309.79 208.71 257.65" style="fill:#2563EB;stroke:#263238;stroke-linecap:round;stroke-linejoin:round"></polygon><rect x="118.4" y="309.79" width="180.63" height="4.39" style="fill:#2563EB;stroke:#263238;stroke-linecap:round;stroke-linejoin:round"></rect><polygon points="316.8 260.75 270.03 287.76 363.57 287.76 316.8 260.75" style="fill:#2563EB;stroke:#263238;stroke-linecap:round;stroke-linejoin:round"></polygon><rect x="270.03" y="287.76" width="93.54" height="4.34" style="fill:#2563EB;stroke:#263238;stroke-linecap:round;stroke-linejoin:round"></rect><rect x="147.18" y="326.25" width="10.75" height="10.75" style="fill:#fff;stroke:#263238;stroke-linecap:round;stroke-linejoin:round;stroke-width:0.5px"></rect><rect x="163.31" y="326.25" width="10.75" height="10.75" style="fill:#fff;stroke:#263238;stroke-linecap:round;stroke-linejoin:round;stroke-width:0.5px"></rect><rect x="179.43" y="326.25" width="10.75" height="10.75" style="fill:#fff;stroke:#263238;stroke-linecap:round;stroke-linejoin:round;stroke-width:0.5px"></rect><rect x="195.55" y="326.25" width="10.75" height="10.75" style="fill:#fff;stroke:#263238;stroke-linecap:round;stroke-linejoin:round;stroke-width:0.5px"></rect><rect x="211.68" y="326.25" width="10.75" height="10.75" style="fill:#fff;stroke:#263238;stroke-linecap:round;stroke-linejoin:round;stroke-width:0.5px"></rect><rect x="227.8" y="326.25" width="10.75" height="10.75" style="fill:#fff;stroke:#263238;stroke-linecap:round;stroke-linejoin:round;stroke-width:0.5px"></rect><rect x="243.92" y="326.25" width="10.75" height="10.75" style="fill:#fff;stroke:#263238;stroke-linecap:round;stroke-linejoin:round;stroke-width:0.5px"></rect><rect x="260.04" y="326.25" width="10.75" height="10.75" style="fill:#fff;stroke:#263238;stroke-linecap:round;stroke-linejoin:round;stroke-width:0.5px"></rect><rect x="147.18" y="342.07" width="10.75" height="10.75" style="fill:#fff;stroke:#263238;stroke-linecap:round;stroke-linejoin:round;stroke-width:0.5px"></rect><rect x="163.31" y="342.07" width="10.75" height="10.75" style="fill:#fff;stroke:#263238;stroke-linecap:round;stroke-linejoin:round;stroke-width:0.5px"></rect><rect x="179.43" y="342.07" width="10.75" height="10.75" style="fill:#fff;stroke:#263238;stroke-linecap:round;stroke-linejoin:round;stroke-width:0.5px"></rect><rect x="195.55" y="342.07" width="10.75" height="10.75" style="fill:#fff;stroke:#263238;stroke-linecap:round;stroke-linejoin:round;stroke-width:0.5px"></rect><rect x="211.68" y="342.07" width="10.75" height="10.75" style="fill:#fff;stroke:#263238;stroke-linecap:round;stroke-linejoin:round;stroke-width:0.5px"></rect><rect x="227.8" y="342.07" width="10.75" height="10.75" style="fill:#fff;stroke:#263238;stroke-linecap:round;stroke-linejoin:round;stroke-width:0.5px"></rect><rect x="243.92" y="342.07" width="10.75" height="10.75" style="fill:#fff;stroke:#263238;stroke-linecap:round;stroke-linejoin:round;stroke-width:0.5px"></rect><rect x="260.04" y="342.07" width="10.75" height="10.75" style="fill:#fff;stroke:#263238;stroke-linecap:round;stroke-linejoin:round;stroke-width:0.5px"></rect><rect x="147.18" y="357.89" width="10.75" height="10.75" style="fill:#fff;stroke:#263238;stroke-linecap:round;stroke-linejoin:round;stroke-width:0.5px"></rect><rect x="163.31" y="357.89" width="10.75" height="10.75" style="fill:#fff;stroke:#263238;stroke-linecap:round;stroke-linejoin:round;stroke-width:0.5px"></rect><rect x="179.43" y="357.89" width="10.75" height="10.75" style="fill:#fff;stroke:#263238;stroke-linecap:round;stroke-linejoin:round;stroke-width:0.5px"></rect><rect x="195.55" y="357.89" width="10.75" height="10.75" style="fill:#fff;stroke:#263238;stroke-linecap:round;stroke-linejoin:round;stroke-width:0.5px"></rect><rect x="211.68" y="357.89" width="10.75" height="10.75" style="fill:#fff;stroke:#263238;stroke-linecap:round;stroke-linejoin:round;stroke-width:0.5px"></rect><rect x="227.8" y="357.89" width="10.75" height="10.75" style="fill:#fff;stroke:#263238;stroke-linecap:round;stroke-linejoin:round;stroke-width:0.5px"></rect><rect x="243.92" y="357.89" width="10.75" height="10.75" style="fill:#fff;stroke:#263238;stroke-linecap:round;stroke-linejoin:round;stroke-width:0.5px"></rect><rect x="260.04" y="357.89" width="10.75" height="10.75" style="fill:#fff;stroke:#263238;stroke-linecap:round;stroke-linejoin:round;stroke-width:0.5px"></rect><rect x="147.18" y="373.7" width="10.75" height="10.75" style="fill:#fff;stroke:#263238;stroke-linecap:round;stroke-linejoin:round;stroke-width:0.5px"></rect><rect x="163.31" y="373.7" width="10.75" height="10.75" style="fill:#fff;stroke:#263238;stroke-linecap:round;stroke-linejoin:round;stroke-width:0.5px"></rect><rect x="179.43" y="373.7" width="10.75" height="10.75" style="fill:#fff;stroke:#263238;stroke-linecap:round;stroke-linejoin:round;stroke-width:0.5px"></rect><rect x="195.55" y="373.7" width="10.75" height="10.75" style="fill:#fff;stroke:#263238;stroke-linecap:round;stroke-linejoin:round;stroke-width:0.5px"></rect><rect x="211.68" y="373.7" width="10.75" height="10.75" style="fill:#fff;stroke:#263238;stroke-linecap:round;stroke-linejoin:round;stroke-width:0.5px"></rect><rect x="227.8" y="373.7" width="10.75" height="10.75" style="fill:#fff;stroke:#263238;stroke-linecap:round;stroke-linejoin:round;stroke-width:0.5px"></rect><rect x="243.92" y="373.7" width="10.75" height="10.75" style="fill:#fff;stroke:#263238;stroke-linecap:round;stroke-linejoin:round;stroke-width:0.5px"></rect><rect x="260.04" y="373.7" width="10.75" height="10.75" style="fill:#fff;stroke:#263238;stroke-linecap:round;stroke-linejoin:round;stroke-width:0.5px"></rect><polygon points="450.24 391.45 341.7 391.45 341.7 290.16 395.97 260.75 450.24 290.16 450.24 391.45" style="fill:#fff;stroke:#263238;stroke-linecap:round;stroke-linejoin:round"></polygon><polygon points="458.54 294.47 395.97 260.57 333.4 294.47 331.46 290.87 395.97 255.92 460.49 290.87 458.54 294.47" style="fill:#2563EB;stroke:#263238;stroke-linecap:round;stroke-linejoin:round"></polygon><polygon points="341.7 290.16 341.7 292.62 395.97 263.22 450.24 292.62 450.24 290.16 395.97 260.75 341.7 290.16" style="fill:#263238;stroke:#263238;stroke-linecap:round;stroke-linejoin:round"></polygon><rect x="397.72" y="324.88" width="18.21" height="12.66" style="fill:#263238;stroke:#263238;stroke-linecap:round;stroke-linejoin:round"></rect><rect x="397.72" y="341.7" width="18.21" height="12.66" style="fill:#263238;stroke:#263238;stroke-linecap:round;stroke-linejoin:round"></rect><rect x="397.72" y="307.2" width="18.21" height="13.51" style="fill:#263238;stroke:#263238;stroke-linecap:round;stroke-linejoin:round"></rect><rect x="375.35" y="307.2" width="18.21" height="13.51" style="fill:#263238;stroke:#263238;stroke-linecap:round;stroke-linejoin:round"></rect><rect x="375.35" y="341.7" width="18.21" height="12.66" style="fill:#263238;stroke:#263238;stroke-linecap:round;stroke-linejoin:round"></rect><rect x="375.35" y="324.88" width="18.21" height="12.66" style="fill:#263238;stroke:#263238;stroke-linecap:round;stroke-linejoin:round"></rect><rect x="397.72" y="358.52" width="18.21" height="11.65" style="fill:#263238;stroke:#263238;stroke-linecap:round;stroke-linejoin:round"></rect><rect x="375.35" y="358.52" width="18.21" height="11.65" style="fill:#263238;stroke:#263238;stroke-linecap:round;stroke-linejoin:round"></rect><line x1="285.59" y1="212.49" x2="105.13" y2="212.49" style="fill:none;stroke:#263238;stroke-linecap:round;stroke-linejoin:round"></line><line x1="119.05" y1="391.29" x2="104.06" y2="391.29" style="fill:none;stroke:#263238;stroke-linecap:round;stroke-linejoin:round"></line><line x1="110.7" y1="209.15" x2="110.7" y2="396.3" style="fill:none;stroke:#263238;stroke-linecap:round;stroke-linejoin:round"></line><line x1="450.46" y1="394.63" x2="450.46" y2="403.54" style="fill:none;stroke:#263238;stroke-linecap:round;stroke-linejoin:round"></line><line x1="123.51" y1="394.63" x2="123.51" y2="403.54" style="fill:none;stroke:#263238;stroke-linecap:round;stroke-linejoin:round"></line><line x1="119.05" y1="399.64" x2="456.03" y2="399.64" style="fill:none;stroke:#263238;stroke-linecap:round;stroke-linejoin:round"></line><line x1="193.13" y1="257.61" x2="102.34" y2="257.61" style="fill:none;stroke:#263238;stroke-linecap:round;stroke-linejoin:round"></line><line x1="105.13" y1="252.6" x2="105.13" y2="394.63" style="fill:none;stroke:#263238;stroke-linecap:round;stroke-linejoin:round"></line><line x1="334.61" y1="282.68" x2="334.61" y2="216.95" style="fill:none;stroke:#263238;stroke-linecap:round;stroke-linejoin:round"></line><line x1="459.37" y1="282.68" x2="459.37" y2="216.95" style="fill:none;stroke:#263238;stroke-linecap:round;stroke-linejoin:round"></line><line x1="331.27" y1="225.31" x2="464.39" y2="225.31" style="fill:none;stroke:#263238;stroke-linecap:round;stroke-linejoin:round"></line><line x1="297.85" y1="394.63" x2="297.85" y2="405.21" style="fill:none;stroke:#263238;stroke-linecap:round;stroke-linejoin:round"></line><line x1="335.16" y1="394.63" x2="335.16" y2="405.21" style="fill:none;stroke:#263238;stroke-linecap:round;stroke-linejoin:round"></line></g><g id="freepik--Hammer--inject-76"><rect x="630.38" y="48.75" width="9.51" height="17.01" rx="1.76" style="fill:none;stroke:#263238;stroke-miterlimit:10"></rect><path d="M639.89,49.93s.44,2.87,6.5,1.44a24.13,24.13,0,0,0,9.28-4.1s17.3-.36,26.22,4.28,25.16,29.08,25.16,29.08l-2.14,2a75.64,75.64,0,0,0-14.1-14.27c-9.09-7.14-12.66-7.49-13.38-3.57s-2.14,12.31-2.14,12.31H658l-2.62-8.81a8.64,8.64,0,0,0-9.37-6.1c-2.45.31-4.86,1-6.11,2.42Z" style="fill:none;stroke:#263238;stroke-miterlimit:10"></path><path d="M679.43,250.46s-1.68-95.71-4-118.63-1.35-40.78-.34-44.49.27-10.28.27-10.28l-11.05.16L658,77.06s-.74,6.57.27,10.28,2,21.57-.34,44.49-4,118.63-4,118.63-.75,2.64,3,3.37a23.34,23.34,0,0,0,7.42,0c2.22.16,8.94.56,12.07,0C680.18,253.1,679.43,250.46,679.43,250.46Z" style="fill:none;stroke:#263238;stroke-miterlimit:10"></path></g><g id="freepik--Saw--inject-76"><path d="M541.23,77.84l-1.77-21.68,2.09-.75s2.44,3.81,5.13,4.24,5.07,2,7.65.8,12.4-5,18.47-7.23,10.09-1.51,14-4.85a12,12,0,0,0,4-8.09l2.29-.28,6.64,47.45-23,24.82a20.12,20.12,0,0,1-5.54,1.4c-2.28,0-26.77,0-26.77,0l-1.61-2.84Z" style="fill:none;stroke:#263238;stroke-miterlimit:10"></path><path d="M551.59,78.85a6.88,6.88,0,0,1,5.83-2.06c3.59.5,4.7.81,5.46-.27s1.85-3.49,4.56-3.29,3.5,1.63,4.72.58,3-3.85,5.26-3.68,3.09,1.14,3.46-.65,5.36-5,9.72-2.67,6,7,.52,14.33S568.22,96,562,97.55s-9.6-2.08-10.78-4.44S547.88,82.88,551.59,78.85Z" style="fill:none;stroke:#263238;stroke-miterlimit:10"></path><polyline points="545.11 113.75 545.23 254.17 559.66 255.26 603.43 89.32 599.72 87.45" style="fill:none;stroke:#263238;stroke-miterlimit:10"></polyline><path d="M553.37,245.48a2.26,2.26,0,1,1,2.42-2.08A2.26,2.26,0,0,1,553.37,245.48Z" style="fill:none;stroke:#263238;stroke-miterlimit:10"></path></g><g id="freepik--measuring-tape--inject-76"><path d="M461.62,142.71l-1.05,1.58s-5.78,4.73-7.36,6.83-5,.52-8.14,0-7.88-3.16-8.67-3.42S422.22,144,418.54,144h-9.72c-3.15,0-27.32-5.51-27.32-5.51s-3.94.26-9.72-3.15-8.14-13.66-9.19-16-1.58-4.73-.27-8.93S373.62,78.35,378.87,70s19.18-20.75,38.88-19.44,27.84,12.35,27.84,12.35l9.72,11v1s3.42-.53,5.26,1.31,3.41,6.31,2.62,7.62-3.15,5-3.15,5l.53,27.06a13.25,13.25,0,0,1,2.89,7.62c0,4.2-.27,7.35-.27,7.35" style="fill:none;stroke:#263238;stroke-miterlimit:10"></path><path d="M385.18,67.85s14.71-8.93,31-1" style="fill:none;stroke:#263238;stroke-miterlimit:10"></path><path d="M441.65,102.78s4.73,28.64-17.33,35.73" style="fill:none;stroke:#263238;stroke-miterlimit:10"></path><path d="M443.76,115.92V133s3.67,3.42,3.67,6v8.67" style="fill:none;stroke:#263238;stroke-miterlimit:10"></path><path d="M458.73,88.86l-11.3,7.62h-2.36c-5-14.45-13.66-22.07-13.66-22.07l1-1.83s7.36-8.41,13.13-9.72" style="fill:none;stroke:#263238;stroke-miterlimit:10"></path><polyline points="433.51 72.84 441.65 84.13 446.12 85.97 449.27 90.96 448.22 95.17" style="fill:none;stroke:#263238;stroke-miterlimit:10"></polyline><line x1="446.12" y1="85.97" x2="459.25" y2="77.04" style="fill:none;stroke:#263238;stroke-miterlimit:10"></line><line x1="441.65" y1="84.13" x2="454" y2="76.25" style="fill:none;stroke:#263238;stroke-miterlimit:10"></line><path d="M370.21,101.73s4.2,22.07,20.22,32.84" style="fill:none;stroke:#263238;stroke-miterlimit:10"></path><path d="M369.68,106.72s-1.84,7.62-.53,11.82,4.47,10.51,7.88,12.35a22.78,22.78,0,0,0,8.15,2.1" style="fill:none;stroke:#263238;stroke-miterlimit:10"></path><ellipse cx="407.63" cy="102.59" rx="22.2" ry="28.82" transform="translate(28.95 285.05) rotate(-39.85)" style="fill:none;stroke:#263238;stroke-miterlimit:10"></ellipse><path d="M514.68,141.66l2.36-3.41-55.16-7.62-10.77,7.88v2.63L505.22,149l.13.39,2.39,7.3,1.69.57.71,4.94,9.88-10,.14-5.22,1.27-2.54L521.15,133l-2.68,2.68.56,8.47-1-.85a7.8,7.8,0,0,1-2.12-1.13c-.28-.42-1.55-.7-3.81-.28s-3.53,1-5.36,1-8.19-1.41-10.31-1.41-4.09,3.67-4.09,3.67l-.85.84,14.26,2.54" style="fill:none;stroke:#263238;stroke-miterlimit:10"></path><polygon points="516.63 149.79 512.96 153.32 513.52 154.31 516.77 151.49 516.63 149.79" style="fill:none;stroke:#263238;stroke-miterlimit:10"></polygon><path d="M468.35,131.58s-1.13,4.52-2.68,6.64" style="fill:none;stroke:#263238;stroke-miterlimit:10"></path><path d="M473.57,132.57a28.6,28.6,0,0,1-1.41,3.81" style="fill:none;stroke:#263238;stroke-miterlimit:10"></path><path d="M478.8,132.85a40.22,40.22,0,0,1-3.11,7.35" style="fill:none;stroke:#263238;stroke-miterlimit:10"></path><path d="M484.16,133.7a7.72,7.72,0,0,1-1.13,3.67" style="fill:none;stroke:#263238;stroke-miterlimit:10"></path><path d="M489,134.55a35.56,35.56,0,0,1-3.25,7.9" style="fill:none;stroke:#263238;stroke-miterlimit:10"></path><line x1="493.9" y1="134.97" x2="492.63" y2="139.21" style="fill:none;stroke:#263238;stroke-miterlimit:10"></line><line x1="498.56" y1="136.1" x2="497.29" y2="141.18" style="fill:none;stroke:#263238;stroke-miterlimit:10"></line><line x1="503.78" y1="136.81" x2="502.94" y2="140.05" style="fill:none;stroke:#263238;stroke-miterlimit:10"></line><line x1="508.87" y1="137.65" x2="507.31" y2="142.45" style="fill:none;stroke:#263238;stroke-miterlimit:10"></line><line x1="463.13" y1="131.44" x2="461.85" y2="135.25" style="fill:none;stroke:#263238;stroke-miterlimit:10"></line><path d="M500.15,143.93c0,.61-1,1.1-2.34,1.1s-2.35-.49-2.35-1.1,1.05-1.1,2.35-1.1S500.15,143.33,500.15,143.93Z" style="fill:none;stroke:#263238;stroke-miterlimit:10"></path><path d="M511.15,145.69c0,.69-1.11,1.25-2.49,1.25s-2.49-.56-2.49-1.25,1.11-1.24,2.49-1.24S511.15,145,511.15,145.69Z" style="fill:none;stroke:#263238;stroke-miterlimit:10"></path></g><g id="freepik--character-1--inject-76"><path d="M503.23,338.25s-.5,11.25,1.25,15,6.75,4.5,6.75,4.5L511,340Z" style="fill:#fff;stroke:#263238;stroke-linecap:round;stroke-linejoin:round"></path><polygon points="503.48 335.5 502.98 341 511.48 341.5 511.73 336 503.48 335.5" style="fill:#fff;stroke:#263238;stroke-linecap:round;stroke-linejoin:round"></polygon><path d="M507.48,254.25s-1.25,6.5-2.5,16-1.25,46.25-1.25,47.5-4,16.5-2,18,4.75,1.5,7.25,1.5,4.5-.25,4.75-2-.75-74-1.25-78.25S507.48,254.25,507.48,254.25Z" style="fill:#2563EB;stroke:#263238;stroke-linecap:round;stroke-linejoin:round"></path><path d="M549.5,452.45s-3.55,5.86-5.15,8.17-8.34,6-8.7,7.45,1.42,2.13,3.91,2.13A68.17,68.17,0,0,0,551.45,469a57.72,57.72,0,0,0,11.89-3.91c1.95-1.06.14-10,.14-10S553.22,455.65,549.5,452.45Z" style="fill:#fff;stroke:#263238;stroke-linecap:round;stroke-linejoin:round"></path><path d="M511.48,317s.25,47.75.5,50.5,6.25,57.5,6.25,57.5l.75,7.75s-2,3.25-1.5,5.5.75,10.5.75,10.5a18.84,18.84,0,0,1,7,1c3.25,1.25,9.75,1.75,9.75,1.75s.25-6.75.5-9.5-.25-7.5-.25-10S537,361.75,537,361.75s6.5,50.75,7.75,57,2,12.5,2,12.5l.75,2.5-2.25,3.5L548,454.51s-.25-1,3.5,1,12,.5,12,.5,1.75-9.76,2-10.76,2.25-16.25,1.25-19-3.25-7.25-3.25-9-.75-22.75-.75-22.75,2-51.25,1.75-57.75S563.23,315,563.23,315s-17.75,4-29,4.75S511.48,317,511.48,317Z" style="fill:#263238;stroke:#263238;stroke-linecap:round;stroke-linejoin:round"></path><polyline points="536.98 361.75 535.73 345.5 530.48 339.75" style="fill:none;stroke:#969696;stroke-linecap:round;stroke-linejoin:round"></polyline><path d="M519.5,448s-7.27,7.63-9.58,9.4-6.75,2.49-6.21,5,2.66,2.66,6,2.66,13.13-2.3,14.91-2.3,7.81.53,9.23-.89.18-11,.18-11Z" style="fill:#fff;stroke:#263238;stroke-linecap:round;stroke-linejoin:round"></path><path d="M529,243.5s-21.25,9-21.5,10.75,1.75,31.5,1.5,38.75.5,22.75,1.25,25.25,5.38,3.28,13.75,4.75,27.5,0,32.5-2.25,6.75-3,6.75-5.75S566,259.25,566,256.5s-13.75-9.75-16.25-11S535.48,242.75,529,243.5Z" style="fill:#2563EB;stroke:#263238;stroke-linecap:round;stroke-linejoin:round"></path><path d="M531.73,239.5s-4.25,3.25-5.5,5S522,258.75,522,258.75L534,252l4.5.5,9,7.75s5.25-10.75,5.5-13.5-8-7.94-11-8.25A31.57,31.57,0,0,0,531.73,239.5Z" style="fill:#fff;stroke:#263238;stroke-linecap:round;stroke-linejoin:round"></path><path d="M520.94,207.07s-3.5,10-2.5,11.24a4,4,0,0,1,1,2.24l.25,1s-3.75,7.25-2.5,7.75a29.13,29.13,0,0,0,3.75,1s.24,9.74,2.24,11.49,7,.5,7,.5l3.49,17,13.49-18.73.25-6.75s1.5-7.49,2.75-9.74,5.5-9,4-15.49-10.24-13-19.49-13-15.23,5.24-15.23,7.49A6.84,6.84,0,0,0,520.94,207.07Z" style="fill:#fff;stroke:#263238;stroke-linecap:round;stroke-linejoin:round"></path><path d="M544.42,229.8s1.77.88,3.52,1.58a37.19,37.19,0,0,1,2.22-7.33c1.25-2.25,5.5-9,4-15.49s-10.24-13-19.49-13-15.23,5.24-15.23,7.49a6.84,6.84,0,0,0,1.5,4s.49.5,3.49.5,10-2.25,10.24.74-3.74,5.75-2,7a23.76,23.76,0,0,0,4.24,2.25s-1.5,5.49.5,5.74,2.75-.25,3.25-2.25,1.5-5.24,5-2.24,1.25,8.74.5,9.49A18.31,18.31,0,0,1,544.42,229.8Z" style="fill:#263238;stroke:#263238;stroke-linecap:round;stroke-linejoin:round"></path><path d="M525.45,221.71c0,.91-.45,1.65-1,1.65s-1-.74-1-1.65.45-1.65,1-1.65S525.45,220.79,525.45,221.71Z" style="fill:#263238"></path><path d="M523.11,231.68s3.51.7,5.74-1.76" style="fill:none;stroke:#263238;stroke-linecap:round;stroke-linejoin:round"></path><path d="M522.05,218s1.29-2.58,5-.24" style="fill:none;stroke:#263238;stroke-linecap:round;stroke-linejoin:round"></path><polygon points="530.18 242.29 536.7 239.77 530.84 245.4 530.18 242.29" style="fill:#263238;stroke:#263238;stroke-miterlimit:10"></polygon><path d="M562.83,339.38a53,53,0,0,0-1.55,5.6,32.66,32.66,0,0,0,0,6.84c.15.62,1.71.16,1.71.16s.16,1.86.31,4.35,2.8,1.87,3.89,1.09,3.89-3.42,4.51-6.53-.78-10-.78-10Z" style="fill:#fff;stroke:#263238;stroke-linecap:round;stroke-linejoin:round"></path><path d="M562.37,336.26v4.67A7.13,7.13,0,0,0,566,342a11.88,11.88,0,0,0,5-1.09l.32-3.27Z" style="fill:#fff;stroke:#263238;stroke-linecap:round;stroke-linejoin:round"></path><path d="M563,252.5s6.75,4.5,7.75,5.75,4,29.75,6,37.5-2.75,39.5-2.5,40.5-4.25,3.5-9.25,2-5.5-1-5.25-2.75.5-30.75.5-32-3.75-30.5-3.75-30.5" style="fill:#2563EB;stroke:#263238;stroke-linecap:round;stroke-linejoin:round"></path></g><g id="freepik--character-2--inject-76"><path d="M569.71,259s-6.76,3.43-8,8.79c-1.14,5-2.28.91-.68,37.12.24,5.53,3,12.22,5.49,8.84s3.17-7.4,3.17-14.8-.43-24.31,0-30S571.82,259.43,569.71,259Z" style="fill:#fff;stroke:#263238;stroke-linecap:round;stroke-linejoin:round"></path><path d="M570.22,399.58l6.44,55.1-4.89,10.55s-5.67,4.12-3.35,4.38a40.31,40.31,0,0,0,8-.26c2.06-.26,4.12-3.35,4.64-4.12s.51,4.38.51,4.38h2.06s.77-5.15,0-7.73-1-9.26-1-9.26l3.6-48.4Z" style="fill:#fff;stroke:#263238;stroke-linecap:round;stroke-linejoin:round"></path><path d="M583,458.33c-1.68,2.06-5.36,6.44-7.11,7.42a3.52,3.52,0,0,1-4.12-.52s-5.67,4.12-3.35,4.38a40.31,40.31,0,0,0,8-.26c2.06-.26,4.12-3.35,4.64-4.12s.51,4.38.51,4.38h2.06s.77-5.15,0-7.73A21.62,21.62,0,0,1,583,458.33Z" style="fill:#263238;stroke:#263238;stroke-linecap:round;stroke-linejoin:round"></path><path d="M587.47,401.64l4.12,57.16s-4.12,11.58-3.86,12.61,1.29,1.8,3.86.26,4.63-1.55,5.41-6.44a51.23,51.23,0,0,0,.77-6.69l6.69-59Z" style="fill:#fff;stroke:#263238;stroke-linecap:round;stroke-linejoin:round"></path><path d="M596.86,465.23c0-.22.06-.42.09-.63-1.38,1.4-3.35,3-5,2.69-2.84-.51-2.06-2.32-2.06-2.32l-.53-.13c-1,3-1.92,6.06-1.79,6.57.26,1,1.29,1.8,3.86.26S596.09,470.12,596.86,465.23Z" style="fill:#263238;stroke:#263238;stroke-linecap:round;stroke-linejoin:round"></path><path d="M561.68,330.66s-2.53,8.42-1.24,25.16,4.12,44.28,4.12,44.28S577.69,404,587.47,404s25-3.35,25-3.35,3.49-42.41.78-55.86-3.87-15.45-3.87-15.45l-44.53-3.86Z" style="fill:#263238;stroke:#263238;stroke-linecap:round;stroke-linejoin:round"></path><path d="M578.8,252l-.64,3.38L569.71,259s-4,12.05-4,21.56S568,307.19,568,309.1s-6.34,21.56-6.34,21.56,6.55,6.34,21.77,7a54.17,54.17,0,0,0,27-6.34s-7.19-19-7.82-22.83.85-16.06.85-16.06,2.53-28.54,1.26-31.07-12.89-5.71-13.73-6.55-.15-11.47-.15-11.47Z" style="fill:#2563EB;stroke:#263238;stroke-linecap:round;stroke-linejoin:round"></path><line x1="575.33" y1="297.49" x2="587.18" y2="310.41" style="fill:none;stroke:#263238;stroke-linecap:round;stroke-linejoin:round"></line><line x1="574.26" y1="301.79" x2="581.08" y2="308.26" style="fill:none;stroke:#263238;stroke-linecap:round;stroke-linejoin:round"></line><path d="M595.81,256.69a30.18,30.18,0,0,1-4.75-1.91c-.85-.85-.15-11.47-.15-11.47L578.8,252l-.64,3.38L574,257.16a15.08,15.08,0,0,0,1.8,8.4c3,5.49,5.28,8.24,7.82,5.49C585.45,269.11,592.06,261.2,595.81,256.69Z" style="fill:#fff;stroke:#263238;stroke-linecap:round;stroke-linejoin:round"></path><line x1="578.16" y1="255.41" x2="578.16" y2="260.06" style="fill:#fff;stroke:#263238;stroke-linecap:round;stroke-linejoin:round"></line><path d="M561.89,299.37a51.86,51.86,0,0,0,1.47,19.34c3.47,13.05,6.77,24.63,6.77,24.63s.85,5.49,1.06,8.66,1.26,3.17,2.53,2.12,4.86-5.08,4.86-6.34-4.61-7-4.61-7.65-6.59-36.53-6.59-36.53" style="fill:#fff;stroke:#263238;stroke-linecap:round;stroke-linejoin:round"></path><path d="M572.88,225.46s-3.6,1.55-7.89-3.26,1.89-8.75,7.55-12.7,12.19-3.09,20.08-1.37,11.67,14.42,14.59,19.91,5.15,13.9-2.06,18.88-14.59,2.23-16.65-.17,1.89-7.38.86-11-9.1-11.16-11.84-11.84A4.9,4.9,0,0,0,572.88,225.46Z" style="fill:#263238;stroke:#263238;stroke-linecap:round;stroke-linejoin:round"></path><path d="M569.53,224.33s-2.68,11-.81,15.24,4.55,13.9,8.29,14.43,12.56-8,13.9-10.69a11.22,11.22,0,0,0,1.34-4.55s-.27,1.34,2.13-.26a5.87,5.87,0,0,0,2.41-4.55s-9.62-3.47-12.3-6.68a69.75,69.75,0,0,1-5.34-7.75S571.13,223,569.53,224.33Z" style="fill:#fff;stroke:#263238;stroke-linecap:round;stroke-linejoin:round"></path><path d="M575.14,227.8s.8,3.75,0,6.15-4.54,4.81-3.21,5.35a14.62,14.62,0,0,0,4,.53" style="fill:none;stroke:#263238;stroke-linecap:round;stroke-linejoin:round"></path><path d="M580.27,231.71c0,.77-.4,1.4-.88,1.4s-.88-.63-.88-1.4.39-1.41.88-1.41S580.27,230.93,580.27,231.71Z" style="fill:#263238"></path><ellipse cx="570.92" cy="230.73" rx="0.88" ry="1.41" style="fill:#263238"></ellipse><path d="M578.9,227.39a3.4,3.4,0,0,1,3.7,1.41" style="fill:none;stroke:#263238;stroke-linecap:round;stroke-linejoin:round"></path><path d="M574.15,227.21s-1.76-2.11-3.17-.53" style="fill:none;stroke:#263238;stroke-linecap:round;stroke-linejoin:round"></path><path d="M573.45,242.53s4,1.24,6.51-.53" style="fill:none;stroke:#263238;stroke-linecap:round;stroke-linejoin:round"></path><path d="M600.78,259.21s-5.07,11.42-5.07,19.87,1.47,12.68,1.47,12.68l-1.69,16.07L583.23,342.7s-7,3-8.24,4-4.65,7.61-4.86,8.67a7.85,7.85,0,0,0,.42,2.95s.21.64,2.33,1.06a1.92,1.92,0,0,0,2.53-1.9c0-.64,3-3.17,3-3.17a10.3,10.3,0,0,0,4-2.5,27,27,0,0,0,4-4.85s19-36.19,19.42-38.31S609,295.15,609,295.15s4.86-17.55,2.54-26.85S600.78,259.21,600.78,259.21Z" style="fill:#fff;stroke:#263238;stroke-linecap:round;stroke-linejoin:round"></path><line x1="597.18" y1="291.76" x2="598.24" y2="274.43" style="fill:#fff;stroke:#263238;stroke-linecap:round;stroke-linejoin:round"></line><path d="M571.5,358.36a12.8,12.8,0,0,1-.3-2.47c.1-.5,3.66-6.43,3.66-6.43" style="fill:none;stroke:#263238;stroke-linecap:round;stroke-linejoin:round"></path><polyline points="572.98 358.85 572.88 355.89 576.84 350.45" style="fill:none;stroke:#263238;stroke-linecap:round;stroke-linejoin:round"></polyline></g></svg>