<svg width="388" height="73" viewBox="0 0 388 73" fill="none" xmlns="http://www.w3.org/2000/svg">
<path d="M101.737 1.58281C102.74 2.4707 104.014 3.513 104.516 3.93765C105.018 4.36229 106.022 5.05716 106.717 5.4818C107.45 5.90644 108.029 6.36969 108.029 6.52411C108.029 6.63992 108.724 7.18037 109.612 7.72083C110.461 8.26128 111.349 8.99476 111.581 9.4194C111.812 9.84404 112.044 19.1862 112.16 34.3961L112.391 58.678L111.272 58.6394C110.654 58.6394 107.72 57.7901 104.748 56.825L99.3433 55.0106L99.0345 53.0804C98.8801 51.9995 98.8414 46.788 98.9573 41.4992C99.0731 36.1719 99.1889 24.7451 99.2275 16.0979C99.3047 7.412 99.4591 0.231671 99.6135 0.154463C99.7293 0.0772555 100.694 0.694918 101.737 1.58281Z" fill="white"/>
<path d="M96.1778 2.58646C96.3322 4.05341 96.448 6.25383 96.448 7.56637C96.448 10.4231 96.1392 10.7319 91.2365 13.3183C89.3063 14.322 87.0672 15.596 86.218 16.175C83.1683 18.221 83.2841 18.3755 83.3999 12.6621L83.5157 7.56637L87.9551 4.82549C90.4258 3.35854 93.0895 1.65997 93.9387 1.04231C94.788 0.463249 95.5601 2.19426e-06 95.7145 2.19426e-06C95.8303 2.19426e-06 96.062 1.15812 96.1778 2.58646Z" fill="white"/>
<path d="M96.1777 14.5537C96.3322 14.6695 96.448 16.7155 96.448 19.0703C96.448 23.8572 96.7568 23.3168 93.0122 25.4014C92.0471 25.9418 89.5765 27.293 87.5691 28.4511C85.5617 29.5706 83.7859 30.4971 83.5929 30.4971C83.4385 30.4971 83.3612 28.2967 83.3999 25.5944L83.5157 20.6917L86.3724 19.2248C87.9165 18.4141 90.6574 16.9857 92.3946 16.0206C95.8689 14.129 95.8303 14.1677 96.1777 14.5537Z" fill="white"/>
<path d="M70.9694 21.541V24.2047L68.9234 25.2856C67.8425 25.9032 66.2983 26.7911 65.5649 27.293C63.4803 28.6827 63.2486 28.5283 63.2486 25.7488C63.2486 24.4363 63.4031 23.1624 63.5575 22.9307C63.8277 22.5447 70.3132 18.9159 70.7378 18.9159C70.8536 18.9159 70.9694 20.1126 70.9694 21.541Z" fill="white"/>
<path d="M76.6829 21.6182C78.3814 22.9308 80.0028 24.2047 80.2344 24.5135C80.8135 25.2084 81.2767 45.8615 80.7749 46.8266C80.4274 47.4056 80.0028 47.2898 76.6443 45.6685L72.8997 43.8541V31.8097C72.8997 25.0154 73.0541 19.6494 73.2471 19.5336C73.4401 19.4178 74.9843 20.3443 76.6829 21.6182Z" fill="white"/>
<path d="M70.8923 29.4162L70.7764 32.1957L67.2249 34.2031C65.2947 35.284 63.5961 36.0947 63.4803 35.9789C63.3645 35.8631 63.2487 34.5892 63.2487 33.1608V30.5744L66.8775 28.6056C68.8849 27.5247 70.622 26.6368 70.7764 26.6368C70.8923 26.6368 70.9695 27.8721 70.8923 29.4162Z" fill="white"/>
<path d="M96.448 31.578V36.1719L90.1556 39.6848C86.6812 41.6536 83.7473 43.2364 83.5929 43.2364C83.4385 43.2364 83.3613 41.036 83.3999 38.3723L83.5157 33.5468L86.99 31.6938C88.8816 30.6901 91.6225 29.2232 93.0123 28.4511C94.402 27.679 95.7531 27.0227 95.9848 27.0227C96.3322 27.0227 96.448 28.4125 96.448 31.578Z" fill="white"/>
<path d="M70.9694 37.2914V40.1867L69.5797 40.7658C68.2285 41.3448 68.1513 41.3062 66.0281 40.0709C64.87 39.376 63.8277 38.6039 63.7505 38.3723C63.5961 37.9477 69.6955 34.3575 70.5448 34.3575C70.815 34.3575 70.9694 35.3998 70.9694 37.2914Z" fill="white"/>
<path d="M57.0721 36.4807C58.7706 38.5267 70.3904 45.2824 78.8833 49.1428C91.8928 55.0492 110.268 61.1872 124.899 64.4685C129.493 65.5108 126.25 66.2057 118.491 65.8969C102.47 65.2406 81.1995 58.0989 60.392 46.4405C57.2265 44.6647 56.493 44.3945 56.1456 44.8191C54.9875 46.2861 47.4983 51.8064 42.0165 55.2036C38.272 57.5584 25.4169 63.8895 23.6797 64.2755L22.5216 64.5071L23.7955 63.3876C24.529 62.77 26.0731 61.5732 27.2699 60.7626C34.7976 55.7054 49.7373 42.7345 53.7521 37.716C55.2963 35.863 56.2228 35.477 57.0721 36.4807Z" fill="white"/>
<path d="M96.5252 41.1904C96.6024 42.2327 96.6024 44.4331 96.5252 46.1703L96.3708 49.2972L94.3634 50.5325C93.2439 51.1888 91.8928 51.7292 91.3137 51.7292C90.2328 51.7292 84.6738 49.6446 83.7859 48.9112C83.5157 48.7181 83.3227 47.9847 83.3999 47.3284C83.5157 46.2089 83.9404 45.9001 89.6923 42.7731C93.0895 40.9588 95.9848 39.4146 96.1006 39.4146C96.255 39.376 96.448 40.1867 96.5252 41.1904Z" fill="white"/>
<path d="M29.3931 46.981C29.5475 47.2512 28.6982 47.4828 27.1154 47.6758C23.4867 48.0619 18.97 49.4516 15.9975 51.1116C12.639 53.0032 8.73998 56.9022 7.38885 59.8361C6.57816 61.496 5.9605 62.2681 5.03401 62.6928C3.14242 63.6193 1.67547 63.4648 0.748976 62.3067C-0.331933 60.917 -0.254725 59.9133 1.05781 57.8673C3.83729 53.6981 11.6353 48.9884 18.0435 47.6758C21.5179 46.9424 29.0842 46.4791 29.3931 46.981Z" fill="white"/>
<path d="M96.6024 52.8102C96.9112 53.312 96.1777 54.1613 95.7145 53.8911C95.0968 53.5051 95.174 52.5014 95.8303 52.5014C96.1391 52.5014 96.4866 52.6558 96.6024 52.8102Z" fill="white"/>
<path d="M62.3222 54.1999C62.438 54.4701 62.4766 55.5511 62.3994 56.5934L62.2836 58.485L60.2376 58.4464C59.0795 58.4077 57.9986 58.2147 57.8055 58.0217C57.6125 57.8287 57.5739 56.7864 57.7283 55.6669L57.96 53.6595H60.0446C61.4343 53.6595 62.1678 53.8139 62.3222 54.1999Z" fill="white"/>
<path d="M54.9874 54.1999C55.1032 54.4702 55.1418 55.5511 55.0646 56.5934L54.9488 58.485L53.4432 58.6008C50.7795 58.8324 50.1233 58.485 50.1233 56.825C50.1233 53.9297 50.3549 53.6595 52.6711 53.6595C54.0995 53.6595 54.8329 53.8139 54.9874 54.1999Z" fill="white"/>
<path d="M62.7082 61.11C62.8241 61.4189 62.8627 62.6156 62.7855 63.7351L62.6696 65.8197H60.1604H57.6511V63.3104V60.8012L60.0832 60.6854C61.8976 60.6082 62.5538 60.724 62.7082 61.11Z" fill="white"/>
<path d="M55.2963 61.9593C55.4507 62.6928 55.4507 63.9281 55.2963 64.6616L55.0647 66.0127H52.594H50.1234V63.3104V60.6081H52.594H55.0647L55.2963 61.9593Z" fill="white"/>
<path d="M21.788 67.7499C23.0234 69.6028 21.2862 71.34 19.4332 70.1047C18.2751 69.3712 18.1979 68.2903 19.163 67.441C20.1667 66.5145 21.0546 66.6303 21.788 67.7499Z" fill="white"/>
<path d="M235.614 0.386058C231.329 1.04232 227.353 3.24275 225.23 6.09944C224.728 6.79431 223.994 8.49288 223.647 9.80541C222.798 12.9323 223.299 15.7118 225.152 18.3369C227.353 21.3866 229.437 22.4289 238.818 25.0926C241.868 25.9418 244.84 26.9069 245.458 27.2158C247.079 28.0651 247.967 29.5706 247.929 31.4236C247.852 34.2417 244.416 36.2877 239.783 36.2877C235.382 36.2877 232.796 34.7049 231.136 30.999L230.017 28.5669H226.581C224.689 28.5669 222.875 28.6827 222.527 28.7985C220.867 29.4548 222.566 35.3612 225.23 38.2179C228.55 41.7694 232.796 43.2364 239.899 43.2364C249.936 43.2364 255.997 39.0672 256.885 31.578C257.387 27.2544 255.649 23.201 252.252 20.8847C250.284 19.5336 247.272 18.4527 242.37 17.4104C237.467 16.3295 234.07 15.1327 232.912 14.0518C231.561 12.7779 231.561 10.1914 232.95 8.53148C234.34 6.87151 237.66 5.90642 239.706 6.56268C240.478 6.83291 241.405 6.94872 241.752 6.83291C242.756 6.44687 245.651 8.99473 246.385 10.9635L247.079 12.7393H251.326H255.611L255.341 11.1565C254.376 5.05713 250.322 1.65999 242.679 0.579078C238.355 -0.0385848 238.394 -0.0385848 235.614 0.386058Z" fill="white"/>
<path d="M319.462 0.810712C311.355 2.54789 306.761 7.25756 304.483 16.1751C303.827 18.8387 303.711 19.9969 303.943 22.9307C304.252 27.3316 305.642 32.0413 307.379 34.5891C310.081 38.6039 314.598 41.8467 318.844 42.8118C321.083 43.3522 327.105 43.3522 328.997 42.8118C330.464 42.3871 333.9 40.1095 334.98 38.8742C335.675 37.9863 336.061 38.3337 336.37 40.1095C336.525 40.9588 336.872 41.8467 337.142 42.0783C337.837 42.6573 341.852 42.7346 342.354 42.2327C342.624 41.9625 342.701 38.0249 342.663 31.0376L342.547 20.2671L333.977 20.1513L325.445 20.0741L325.175 21.6568C325.021 22.5061 325.021 23.9731 325.175 24.8995L325.407 26.5981L329.73 26.7139C334.633 26.8297 334.826 26.9842 333.707 29.8795C333.012 31.7324 331.197 33.7398 329.46 34.6277C327.569 35.6314 322.743 35.7472 320.35 34.898C317.802 33.9715 315.37 31.4236 314.134 28.3353C313.362 26.3665 313.246 25.4014 313.246 21.2322C313.246 17.1016 313.362 16.0979 314.134 14.1291C315.833 9.92123 318.805 7.52779 323.013 7.10315C327.144 6.6399 330.773 8.6087 332.548 12.1603L333.591 14.3221L337.683 14.2063L341.775 14.0905L341.659 12.7779C341.505 10.8863 339.343 7.02594 337.374 5.09575C333.243 1.04234 326.179 -0.617633 319.462 0.810712Z" fill="white"/>
<path d="M138.68 1.6986C137.985 2.23905 137.946 3.08834 137.637 21.5024C137.483 32.0799 137.444 41.1132 137.56 41.5764C137.753 42.4257 137.946 42.4643 142.038 42.4643H146.323L146.207 28.7599C146.13 21.2322 146.169 14.9783 146.323 14.8625C146.516 14.6309 150.299 20.6145 158.29 33.7784C164.274 43.661 163.155 42.696 168.289 42.5415C170.682 42.5029 172.767 42.3485 172.883 42.2327C173.539 41.5378 172.651 2.7023 171.918 2.00743C171.763 1.85301 170.296 1.65999 168.598 1.58279C165.587 1.46697 165.548 1.46697 165.085 2.54788C164.776 3.31996 164.544 7.75941 164.428 16.0207L164.197 28.3739L162.074 25.1312C160.915 23.3168 159.449 21.0392 158.792 20.0355C155.048 14.1677 153.426 11.697 150.299 6.98734C148.408 4.09204 146.671 1.62139 146.439 1.46697C145.706 0.92652 139.49 1.11954 138.68 1.6986Z" fill="white"/>
<path d="M194.231 1.62139C194.038 1.89162 193.227 3.78321 192.455 5.79061C191.683 7.79801 189.907 12.3147 188.517 15.8276C183.808 27.6018 178.673 41.1518 178.673 41.7695C178.673 42.7345 181.916 43.1206 185.738 42.6187C187.707 42.3485 187.784 42.1941 189.753 36.4807L190.834 33.3924L198.361 33.3152C202.492 33.238 206.082 33.3152 206.275 33.5082C206.507 33.6626 207.24 35.5542 207.974 37.716C208.669 39.8779 209.441 41.8081 209.672 42.0397C210.174 42.5415 219.207 42.6187 219.207 42.1169C219.207 41.9239 218.86 40.9588 218.435 39.9937C218.049 39.0286 216.544 35.1682 215.154 31.4236C213.764 27.679 210.869 20.2671 208.707 14.9397C206.584 9.57379 204.499 4.28506 204.075 3.16555L203.341 1.15814H198.979C195.929 1.15814 194.501 1.31256 194.231 1.62139ZM199.481 12.4305C200.871 16.2909 203.766 25.4014 203.766 25.7874C203.766 26.1349 202.299 26.2507 198.554 26.2507C195.698 26.2507 193.343 26.1735 193.343 26.0577C193.343 25.8646 196.508 16.6383 197.975 12.4305C198.246 11.7742 198.593 11.1952 198.747 11.1952C198.902 11.1952 199.249 11.7742 199.481 12.4305Z" fill="white"/>
<path d="M275.183 2.08466C274.99 2.58651 273.446 6.48551 271.786 10.6933C267.501 21.348 259.742 41.5379 259.742 42.0011C259.742 42.696 260.822 42.8118 264.799 42.5802L268.698 42.3485L269.393 40.7658C269.779 39.8779 270.473 37.9091 270.937 36.4035C271.786 33.8171 271.94 33.6241 273.137 33.3924C274.604 33.1222 286.648 33.1608 287.382 33.4696C287.652 33.5854 288.501 35.5542 289.274 37.8705C290.046 40.1867 290.818 42.1555 291.011 42.2713C291.513 42.5802 299.851 42.6574 300.16 42.3485C300.43 42.0783 297.651 34.4733 292.13 20.4601C290.277 15.6732 287.807 9.4194 286.687 6.56272L284.641 1.35119L280.086 1.23538C275.569 1.11956 275.569 1.15817 275.183 2.08466ZM280.974 13.0096C281.244 14.0519 282.325 17.3718 283.329 20.4215C284.371 23.4712 285.22 26.0191 285.22 26.0963C285.22 26.1735 282.865 26.2507 280.009 26.2507C276.11 26.2507 274.797 26.1349 274.797 25.7489C274.797 25.3242 277.654 16.8314 279.275 12.4305C279.623 11.5426 280.009 10.8864 280.163 11.0022C280.356 11.0794 280.703 12.0059 280.974 13.0096Z" fill="white"/>
<path d="M361.888 4.70968C358.683 12.6235 348.145 39.6848 347.604 41.5378C347.372 42.2713 347.527 42.3871 349.341 42.6187C350.422 42.7731 352.507 42.7731 353.974 42.6187L356.599 42.3485L357.216 40.7657C357.525 39.9164 358.22 37.9862 358.683 36.4807C359.417 34.3575 359.803 33.7398 360.536 33.5468C362.312 33.0449 375.09 33.1608 375.437 33.6626C375.592 33.9328 376.364 35.9788 377.136 38.2179L378.526 42.2713L383.197 42.3871C387.134 42.4643 387.907 42.3871 387.907 41.9238C387.907 41.1518 382 25.5558 376.596 12.1602L372.272 1.35114L367.794 1.23533L363.354 1.11951L361.888 4.70968ZM369.377 15.1713C370.033 17.3332 371.114 20.5373 371.732 22.3131C372.349 24.0888 372.851 25.7102 372.851 25.9032C372.851 26.0962 370.535 26.2507 367.601 26.2507H362.389L362.621 25.3628C363.856 21.1935 367.601 10.8477 367.871 11.0021C368.026 11.1179 368.72 12.9709 369.377 15.1713Z" fill="white"/>
<path d="M137.56 52.1925C137.444 52.6943 137.406 57.5198 137.444 62.9244L137.56 72.7684L143.66 72.8842L149.72 73V71.0312V69.101H146.246H142.772V60.2221V51.3432H140.262C137.985 51.3432 137.753 51.4204 137.56 52.1925Z" fill="white"/>
<path d="M174.35 61.11C174.234 66.5146 174.234 71.3787 174.311 71.9577C174.504 72.9228 174.62 72.9614 176.936 72.9614H179.33L179.523 64.5458C179.6 59.9519 179.6 55.1264 179.484 53.8525L179.252 51.5363L176.898 51.4204L174.543 51.3046L174.35 61.11Z" fill="white"/>
<path d="M205.696 62.1523V72.9614H208.205H210.676L210.946 71.5717C211.101 70.7996 211.101 68.5606 210.946 66.5918C210.56 61.0328 210.946 61.0328 213.108 66.669C214.112 69.3712 215.115 71.8805 215.308 72.1893C215.54 72.614 216.274 72.7684 217.856 72.7684H220.057L221.987 67.7499C223.029 64.9704 224.033 62.3839 224.226 61.9593C224.419 61.4574 224.573 63.3876 224.573 67.0936L224.612 73L227.237 72.8842L229.823 72.7684V62.1523V51.5362H226.735H223.647L222.373 54.8176C219.825 61.4188 217.895 65.6267 217.625 65.3564C217.47 65.202 216.158 62.1909 214.768 58.678C213.34 55.165 211.988 52.0767 211.795 51.8065C211.525 51.5362 210.367 51.3432 208.553 51.3432H205.696V62.1523Z" fill="white"/>
<path d="M256.074 51.8065C255.804 52.7716 255.456 70.2205 255.727 71.6103L255.958 73L258.545 72.8842L261.093 72.7684L261.208 66.7848C261.286 63.5034 261.208 58.678 261.093 56.0529L260.822 51.3432H258.545C257.039 51.3432 256.19 51.4976 256.074 51.8065Z" fill="white"/>
<path d="M285.992 51.8837C285.683 52.2697 285.606 53.0032 285.799 54.0455L286.069 55.5897H288.231C289.467 55.5897 290.663 55.7441 290.895 55.8985C291.242 56.1301 291.397 58.4464 291.474 64.4686L291.59 72.7684H294.099H296.608L296.724 64.7002C296.763 59.5273 296.956 56.439 297.226 56.0915C297.496 55.7827 298.577 55.5897 300.16 55.5897H302.631L302.515 53.5437L302.399 51.5363L294.446 51.4204C287.768 51.3432 286.417 51.4204 285.992 51.8837Z" fill="white"/>
<path d="M327.53 51.8065C327.221 52.7716 326.874 70.8768 327.105 71.9191L327.376 72.9614H333.938H340.462L340.346 70.9154L340.231 68.908L336.486 68.7922L332.703 68.6764V66.3988V64.1211L336.1 64.0053L339.459 63.8895L339.574 62.2295C339.729 60.3379 339.767 60.3766 335.714 60.0291L332.703 59.7589V57.9445V56.0915L334.479 55.8213C335.482 55.7055 337.22 55.5897 338.378 55.5897H340.462L340.346 53.5437L340.231 51.5363L333.938 51.4204C329.113 51.3432 327.646 51.4204 327.53 51.8065Z" fill="white"/>
<path d="M365.902 62.1523V72.9614H371.23C377.483 72.9614 379.298 72.4982 381.846 70.2592C384.393 67.9815 385.32 65.5109 385.127 61.5347C384.973 58.8324 384.78 58.0603 383.814 56.4776C381.46 52.6558 378.101 51.3432 370.651 51.3432H365.902V62.1523ZM377.445 57.018C378.873 58.0603 379.8 60.1063 379.8 62.1523C379.8 65.8583 377.792 67.9043 373.855 68.2131L371.307 68.4448V62.1523V55.8599L373.855 56.0915C375.515 56.2073 376.789 56.5548 377.445 57.018Z" fill="white"/>
</svg>
