<svg width="200" height="135" viewBox="0 0 200 135" fill="none" xmlns="http://www.w3.org/2000/svg">
<path d="M61.0614 1.56015C60.0721 2.43533 58.8164 3.46271 58.3217 3.88127C57.827 4.29984 56.8377 4.98476 56.1528 5.40332C55.4298 5.82189 54.8591 6.2785 54.8591 6.43071C54.8591 6.54486 54.1741 7.07758 53.299 7.61029C52.4618 8.14301 51.5866 8.86598 51.3583 9.28455C51.13 9.70311 50.9017 18.9115 50.7876 33.9037L50.5593 57.8379L51.6628 57.7998C52.2716 57.7998 55.1635 56.9627 58.0934 56.0114L63.4206 54.223L63.725 52.3205C63.8772 51.255 63.9152 46.1181 63.8011 40.9051C63.6869 35.654 63.5728 24.3909 63.5347 15.8674C63.4586 7.30588 63.3064 0.228358 63.1542 0.152256C63.0401 0.0761533 62.0888 0.684973 61.0614 1.56015Z" fill="#0C58A7"/>
<path d="M66.5407 2.54946C66.3885 3.99541 66.2744 6.16433 66.2744 7.45807C66.2744 10.2739 66.5788 10.5783 71.4113 13.1277C73.3138 14.117 75.5208 15.3727 76.3579 15.9435C79.364 17.9602 79.2498 18.1124 79.1357 12.4808L79.0215 7.45807L74.6456 4.75643C72.2103 3.31048 69.5848 1.63623 68.7477 1.02741C67.9106 0.456643 67.1495 2.84333e-05 66.9973 2.84333e-05C66.8832 2.84333e-05 66.6549 1.14156 66.5407 2.54946Z" fill="#0860AA"/>
<path d="M66.5408 14.3453C66.3886 14.4595 66.2744 16.4762 66.2744 18.7973C66.2744 23.5157 65.97 22.983 69.661 25.0377C70.6123 25.5704 73.0475 26.9022 75.0262 28.0438C77.0049 29.1473 78.7552 30.0605 78.9455 30.0605C79.0977 30.0605 79.1738 27.8916 79.1357 25.228L79.0216 20.3955L76.2058 18.9495C74.6837 18.1505 71.9821 16.7426 70.2698 15.7913C66.8452 13.9268 66.8832 13.9648 66.5408 14.3453Z" fill="#0860AA"/>
<path d="M91.3882 21.2326V23.8581L93.4049 24.9235C94.4703 25.5324 95.9924 26.4075 96.7154 26.9022C98.7701 28.272 98.9984 28.1198 98.9984 25.3802C98.9984 24.0864 98.8462 22.8307 98.694 22.6024C98.4277 22.2219 92.0351 18.6451 91.6165 18.6451C91.5023 18.6451 91.3882 19.8247 91.3882 21.2326Z" fill="#0860AA"/>
<path d="M85.7566 21.3087C84.0823 22.6024 82.4842 23.8581 82.2559 24.1625C81.6851 24.8474 81.2285 45.2048 81.7232 46.1561C82.0656 46.7269 82.4842 46.6127 85.7946 45.0146L89.4856 43.2262V31.3542C89.4856 24.6572 89.3334 19.3681 89.1432 19.2539C88.9529 19.1397 87.4308 20.053 85.7566 21.3087Z" fill="#0860AA"/>
<path d="M91.4643 28.995L91.5784 31.7347L95.0792 33.7134C96.9817 34.7788 98.656 35.5779 98.7701 35.4637C98.8843 35.3496 98.9984 34.0939 98.9984 32.686V30.1366L95.4216 28.196C93.443 27.1305 91.7306 26.2554 91.5784 26.2554C91.4643 26.2554 91.3882 27.473 91.4643 28.995Z" fill="#0860AA"/>
<path d="M66.2744 31.1259V35.654L72.4767 39.1167C75.9013 41.0573 78.7932 42.6174 78.9454 42.6174C79.0976 42.6174 79.1737 40.4485 79.1357 37.8229L79.0215 33.0665L75.5969 31.2401C73.7324 30.2507 71.0308 28.8048 69.6609 28.0438C68.2911 27.2827 66.9593 26.6359 66.731 26.6359C66.3885 26.6359 66.2744 28.0057 66.2744 31.1259Z" fill="#0860AA"/>
<path d="M91.3882 36.7575V39.6114L92.758 40.1821C94.0898 40.7529 94.1659 40.7148 96.2587 39.4972C97.4003 38.8123 98.4277 38.0513 98.5038 37.8229C98.656 37.4044 92.6439 33.8656 91.8067 33.8656C91.5404 33.8656 91.3882 34.893 91.3882 36.7575Z" fill="#0860AA"/>
<path d="M105.087 35.9584C103.412 37.9751 91.959 44.6341 83.5877 48.4392C70.7645 54.2611 52.6521 60.3112 38.2307 63.5455C33.7026 64.5729 36.8989 65.2579 44.5472 64.9534C60.3384 64.3066 81.3047 57.2671 101.814 45.7756C104.934 44.0253 105.657 43.7589 106 44.1775C107.141 45.6234 114.523 51.0647 119.927 54.4133C123.618 56.7344 136.289 62.9748 138.001 63.3553L139.142 63.5836L137.887 62.4801C137.164 61.8713 135.642 60.6917 134.462 59.8926C127.042 54.9079 112.316 42.1227 108.359 37.1761C106.837 35.3496 105.924 34.9691 105.087 35.9584Z" fill="#0860AA"/>
<path d="M66.1983 40.6007C66.1221 41.628 66.1221 43.797 66.1983 45.5093L66.3505 48.5914L68.3291 49.8091C69.4326 50.4559 70.7644 50.9886 71.3352 50.9886C72.4006 50.9886 77.88 48.9339 78.7552 48.2109C79.0215 48.0207 79.2118 47.2977 79.1357 46.6508C79.0215 45.5473 78.6029 45.2429 72.9333 42.1608C69.5848 40.3724 66.731 38.8503 66.6168 38.8503C66.4646 38.8123 66.2744 39.6113 66.1983 40.6007Z" fill="#0860AA"/>
<path d="M132.369 46.3084C132.217 46.5747 133.054 46.803 134.614 46.9933C138.191 47.3738 142.643 48.7437 145.573 50.3799C148.884 52.2444 152.727 56.0875 154.059 58.9794C154.858 60.6156 155.466 61.3767 156.38 61.7952C158.244 62.7084 159.69 62.5562 160.603 61.4147C161.669 60.0449 161.593 59.0555 160.299 57.0388C157.559 52.9293 149.873 48.287 143.556 46.9933C140.132 46.2703 132.674 45.8137 132.369 46.3084Z" fill="#5457A8"/>
<path d="M131.156 49.2641C130.941 49.4824 131.691 49.9181 133.15 50.5029C136.509 51.7898 140.459 54.2576 142.87 56.5918C145.591 59.2443 148.317 63.946 148.861 67.083C149.213 68.8696 149.606 69.7615 150.381 70.4007C151.948 71.7624 153.385 71.9869 154.56 71.1183C155.942 70.0683 156.123 69.0926 155.391 66.8112C153.799 62.1356 147.564 55.6741 141.792 52.8007C138.668 51.222 131.578 48.8642 131.156 49.2641Z" fill="#F36DCE"/>
<path d="M66.1222 52.0541C65.8178 52.5488 66.5408 53.3859 66.9974 53.1195C67.6062 52.739 67.5301 51.7497 66.8832 51.7497C66.5788 51.7497 66.2364 51.9019 66.1222 52.0541Z" fill="#151515"/>
<path d="M99.9117 53.4239C99.7975 53.6903 99.7595 54.7557 99.8356 55.7831L99.9497 57.6476L101.966 57.6095C103.108 57.5715 104.173 57.3812 104.364 57.191C104.554 57.0007 104.592 55.9733 104.44 54.8698L104.211 52.8912H102.157C100.787 52.8912 100.064 53.0434 99.9117 53.4239Z" fill="#0860AA"/>
<path d="M107.141 53.4239C107.027 53.6902 106.989 54.7557 107.065 55.7831L107.179 57.6476L108.663 57.7617C111.289 57.99 111.936 57.6476 111.936 56.0114C111.936 53.1575 111.708 52.8912 109.424 52.8912C108.017 52.8912 107.294 53.0434 107.141 53.4239Z" fill="#0860AA"/>
<path d="M99.5311 60.2351C99.4169 60.5395 99.3789 61.7191 99.455 62.8226L99.5692 64.8773H102.042H104.516V62.404V59.9307L102.119 59.8165C100.33 59.7404 99.6833 59.8546 99.5311 60.2351Z" fill="#0860AA"/>
<path d="M106.837 61.0722C106.685 61.7952 106.685 63.0129 106.837 63.7358L107.065 65.0676H109.501H111.936V62.404V59.7405H109.501H107.065L106.837 61.0722Z" fill="#0860AA"/>
<path d="M139.865 66.7799C138.648 68.6063 140.36 70.3186 142.186 69.101C143.328 68.378 143.404 67.3126 142.453 66.4755C141.464 65.5622 140.588 65.6764 139.865 66.7799Z" fill="#0860AA"/>
<path d="M123.696 45.0561C122.478 46.8825 124.19 48.5948 126.017 47.3772C127.158 46.6542 127.234 45.5888 126.283 44.7516C125.294 43.8384 124.418 43.9526 123.696 45.0561Z" fill="#F36DCE"/>
<path d="M78.3978 76.7207C74.9763 77.2447 71.8014 79.0017 70.1061 81.2827C69.7053 81.8375 69.1197 83.1938 68.8423 84.2418C68.1641 86.7386 68.5648 88.958 70.0444 91.054C71.8014 93.4891 73.4659 94.3214 80.9562 96.4483C83.3914 97.1264 85.7648 97.897 86.258 98.1436C87.5526 98.8218 88.2616 100.024 88.2308 101.503C88.1691 103.754 85.4258 105.387 81.7268 105.387C78.2129 105.387 76.1476 104.124 74.8222 101.164L73.9283 99.2225H71.1849C69.6745 99.2225 68.2258 99.3149 67.9484 99.4074C66.6229 99.9314 67.9792 104.648 70.1061 106.929C72.757 109.764 76.1476 110.936 81.8193 110.936C89.8337 110.936 94.6731 107.607 95.382 101.627C95.7828 98.1744 94.3957 94.9379 91.6831 93.0884C90.1111 92.0096 87.7068 91.1465 83.7921 90.3142C79.8774 89.4511 77.1648 88.4956 76.2401 87.6325C75.1613 86.6153 75.1613 84.5501 76.2709 83.2246C77.3806 81.8992 80.0315 81.1286 81.6652 81.6526C82.2817 81.8684 83.0215 81.9608 83.2989 81.8684C84.1003 81.5601 86.4121 83.5945 86.9978 85.1666L87.5526 86.5845H90.9433H94.3648L94.1491 85.3207C93.3785 80.4504 90.1419 77.7379 84.0387 76.8748C80.5863 76.3816 80.6172 76.3816 78.3978 76.7207Z" fill="#0860AA"/>
<path d="M145.348 77.0597C138.875 78.4468 135.207 82.2074 133.389 89.3278C132.865 91.4547 132.772 92.3794 132.957 94.7221C133.204 98.2361 134.313 101.997 135.7 104.031C137.858 107.237 141.465 109.826 144.855 110.597C146.643 111.028 151.452 111.028 152.962 110.597C154.133 110.258 156.877 108.439 157.74 107.453C158.295 106.744 158.603 107.021 158.849 108.439C158.973 109.117 159.25 109.826 159.466 110.011C160.021 110.473 163.227 110.535 163.627 110.134C163.843 109.918 163.905 106.774 163.874 101.195L163.781 92.5952L156.938 92.5027L150.126 92.4411L149.91 93.7049C149.787 94.383 149.787 95.5543 149.91 96.2941L150.095 97.6504L153.548 97.7429C157.462 97.8353 157.616 97.9586 156.723 100.27C156.168 101.75 154.719 103.353 153.332 104.062C151.822 104.863 147.968 104.956 146.057 104.278C144.023 103.538 142.081 101.503 141.095 99.0375C140.478 97.4655 140.386 96.6948 140.386 93.3658C140.386 90.0676 140.478 89.2662 141.095 87.6941C142.451 84.3343 144.824 82.4232 148.184 82.0841C151.482 81.7142 154.38 83.2862 155.798 86.1221L156.63 87.8483L159.897 87.7558L163.165 87.6633L163.072 86.6153C162.949 85.1049 161.223 82.0224 159.651 80.4812C156.353 77.2447 150.712 75.9192 145.348 77.0597Z" fill="#0860AA"/>
<path d="M0.997906 77.7687C0.443068 78.2002 0.412244 78.8784 0.165649 93.5816C0.0423512 102.027 0.0115268 109.24 0.104 109.61C0.258122 110.288 0.412243 110.319 3.67963 110.319H7.10113L7.00866 99.3766C6.94701 93.3658 6.97783 88.3723 7.10113 88.2798C7.25525 88.0949 10.276 92.8726 16.6567 103.384C21.4345 111.275 20.5406 110.504 24.6402 110.381C26.5513 110.35 28.2158 110.227 28.3083 110.134C28.8323 109.579 28.1233 78.5701 27.5377 78.0153C27.4144 77.892 26.2431 77.7379 24.8868 77.6762C22.4825 77.5838 22.4517 77.5838 22.0818 78.4468C21.8352 79.0633 21.6502 82.6081 21.5578 89.2045L21.3728 99.0683L19.6775 96.4791C18.7527 95.0304 17.5814 93.2117 17.0574 92.4103C14.0674 87.725 12.7728 85.7522 10.276 81.9916C8.76565 79.6798 7.37855 77.7071 7.1936 77.5838C6.60794 77.1522 1.64522 77.3063 0.997906 77.7687Z" fill="#0860AA"/>
<path d="M45.3542 77.7071C45.2 77.9229 44.5527 79.4333 43.9362 81.0361C43.3198 82.639 41.9018 86.2455 40.7922 89.0505C37.0316 98.4519 32.9319 109.271 32.9319 109.764C32.9319 110.535 35.5212 110.843 38.5728 110.443C40.1448 110.227 40.2065 110.104 41.7785 105.542L42.6416 103.076L48.6524 103.014C51.9506 102.952 54.8172 103.014 54.9714 103.168C55.1563 103.291 55.742 104.802 56.3276 106.528C56.8825 108.254 57.499 109.795 57.6839 109.98C58.0846 110.381 65.2975 110.443 65.2975 110.042C65.2975 109.888 65.0201 109.117 64.681 108.347C64.3728 107.576 63.1706 104.493 62.061 101.504C60.9513 98.5135 58.6395 92.5953 56.9133 88.3415C55.218 84.0569 53.5534 79.834 53.2144 78.9401L52.6287 77.3372H49.1456C46.7104 77.3372 45.5699 77.4605 45.3542 77.7071ZM49.5463 86.3379C50.656 89.4204 52.9678 96.6949 52.9678 97.0032C52.9678 97.2806 51.7965 97.373 48.8065 97.373C46.5255 97.373 44.6452 97.3114 44.6452 97.2189C44.6452 97.0648 47.1728 89.6978 48.3441 86.3379C48.5599 85.8139 48.8373 85.3515 48.9606 85.3515C49.0839 85.3515 49.3613 85.8139 49.5463 86.3379Z" fill="#0860AA"/>
<path d="M109.993 78.077C109.839 78.4777 108.606 81.5909 107.28 84.9508C103.859 93.4583 97.6631 109.579 97.6631 109.949C97.6631 110.504 98.5262 110.597 101.701 110.412L104.814 110.227L105.369 108.963C105.677 108.254 106.232 106.682 106.602 105.48C107.28 103.415 107.404 103.26 108.359 103.076C109.531 102.86 119.148 102.891 119.733 103.137C119.949 103.23 120.627 104.802 121.244 106.651C121.86 108.501 122.477 110.073 122.631 110.165C123.032 110.412 129.69 110.473 129.936 110.227C130.152 110.011 127.933 103.939 123.525 92.7494C122.045 88.9271 120.072 83.9336 119.179 81.6526L117.545 77.4913L113.908 77.3988C110.301 77.3064 110.301 77.3372 109.993 78.077ZM114.617 86.8003C114.832 87.6325 115.695 90.2834 116.497 92.7185C117.329 95.1537 118.007 97.1881 118.007 97.2497C118.007 97.3114 116.127 97.373 113.846 97.373C110.733 97.373 109.685 97.2805 109.685 96.9723C109.685 96.6332 111.966 89.8519 113.26 86.3379C113.538 85.6289 113.846 85.1049 113.969 85.1974C114.123 85.259 114.401 85.9988 114.617 86.8003Z" fill="#0860AA"/>
<path d="M179.224 80.173C176.666 86.492 168.251 108.1 167.819 109.579C167.634 110.165 167.758 110.258 169.207 110.443C170.07 110.566 171.734 110.566 172.905 110.443L175.001 110.227L175.495 108.963C175.741 108.285 176.296 106.744 176.666 105.541C177.252 103.846 177.56 103.353 178.146 103.199C179.563 102.798 189.766 102.891 190.044 103.291C190.167 103.507 190.784 105.141 191.4 106.929L192.51 110.165L196.239 110.258C199.384 110.319 200 110.258 200 109.888C200 109.271 195.284 96.8182 190.968 86.1221L187.516 77.4913L183.941 77.3988L180.396 77.3064L179.224 80.173ZM185.204 88.5264C185.728 90.2526 186.591 92.811 187.085 94.2289C187.578 95.6469 187.979 96.9415 187.979 97.0956C187.979 97.2497 186.129 97.373 183.786 97.373H179.625L179.81 96.6641C180.796 93.335 183.786 85.0741 184.002 85.1974C184.125 85.2899 184.68 86.7694 185.204 88.5264Z" fill="#0860AA"/>
<path d="M0.104032 118.087C0.0115591 118.488 -0.0192652 122.341 0.0115591 126.656L0.104032 134.516L4.97428 134.609L9.81371 134.701V133.129V131.588H7.03951H4.26532V124.498V117.409H2.26174C0.4431 117.409 0.258154 117.47 0.104032 118.087Z" fill="#0860AA"/>
<path d="M29.4796 125.207C29.3871 129.523 29.3871 133.407 29.4488 133.869C29.6029 134.64 29.6954 134.67 31.5448 134.67H33.456L33.6101 127.951C33.6717 124.283 33.6717 120.43 33.5793 119.412L33.3943 117.563L31.514 117.47L29.6337 117.378L29.4796 125.207Z" fill="#0860AA"/>
<path d="M54.509 126.04V134.67H56.5126H58.4853L58.7011 133.561C58.8244 132.944 58.8244 131.156 58.7011 129.584C58.3928 125.146 58.7011 125.146 60.4273 129.646C61.2287 131.804 62.0301 133.807 62.1842 134.054C62.3692 134.393 62.9548 134.516 64.2186 134.516H65.9756L67.5169 130.509C68.3491 128.29 69.1505 126.225 69.3047 125.886C69.4588 125.485 69.5821 127.026 69.5821 129.985L69.6129 134.701L71.709 134.609L73.7742 134.516V126.04V117.563H71.3083H68.8423L67.8251 120.183C65.7907 125.454 64.2495 128.814 64.0337 128.598C63.9104 128.475 62.8624 126.07 61.7527 123.265C60.6122 120.46 59.5333 117.994 59.3792 117.779C59.1635 117.563 58.2387 117.409 56.79 117.409H54.509V126.04Z" fill="#0860AA"/>
<path d="M94.7349 117.779C94.5191 118.549 94.2417 132.482 94.4575 133.592L94.6424 134.701L96.7076 134.609L98.742 134.516L98.8345 129.739C98.8962 127.119 98.8345 123.265 98.742 121.169L98.5263 117.409H96.7076C95.5055 117.409 94.8273 117.532 94.7349 117.779Z" fill="#0860AA"/>
<path d="M118.624 117.84C118.377 118.149 118.315 118.734 118.47 119.567L118.685 120.8H120.412C121.398 120.8 122.353 120.923 122.538 121.046C122.816 121.231 122.939 123.081 123.001 127.889L123.093 134.516H125.097H127.1L127.193 128.074C127.224 123.944 127.378 121.478 127.594 121.2C127.809 120.954 128.672 120.8 129.936 120.8H131.909L131.817 119.166L131.724 117.563L125.374 117.47C120.042 117.409 118.963 117.47 118.624 117.84Z" fill="#0860AA"/>
<path d="M151.791 117.779C151.544 118.549 151.267 133.006 151.452 133.838L151.667 134.67H156.908H162.117L162.024 133.037L161.932 131.434L158.942 131.341L155.921 131.249V129.43V127.612L158.634 127.519L161.315 127.427L161.408 126.101C161.531 124.591 161.562 124.622 158.325 124.344L155.921 124.129V122.68V121.2L157.339 120.984C158.14 120.892 159.528 120.8 160.452 120.8H162.117L162.024 119.166L161.932 117.563L156.908 117.47C153.054 117.409 151.883 117.47 151.791 117.779Z" fill="#0860AA"/>
<path d="M182.43 126.04V134.67H186.684C191.677 134.67 193.126 134.301 195.161 132.513C197.195 130.694 197.935 128.721 197.781 125.546C197.657 123.389 197.503 122.772 196.733 121.508C194.852 118.457 192.171 117.409 186.221 117.409H182.43V126.04ZM191.647 121.94C192.787 122.772 193.527 124.406 193.527 126.04C193.527 128.999 191.924 130.632 188.78 130.879L186.745 131.064V126.04V121.015L188.78 121.2C190.105 121.293 191.123 121.57 191.647 121.94Z" fill="#0860AA"/>
</svg>
