<svg width="130" height="80" viewBox="0 0 130 80" fill="none" xmlns="http://www.w3.org/2000/svg">
<path d="M104.227 1.79557C105.251 2.80282 106.55 3.98524 107.062 4.46697C107.573 4.94869 108.597 5.73697 109.305 6.2187C110.053 6.70043 110.644 7.22595 110.644 7.40112C110.644 7.5325 111.352 8.14561 112.258 8.75872C113.124 9.37182 114.029 10.2039 114.265 10.6856C114.502 11.1673 114.738 21.7653 114.856 39.0199L115.092 66.5659L113.95 66.5221C113.321 66.5221 110.329 65.5587 107.298 64.4638L101.787 62.4056L101.472 60.2159C101.314 58.9897 101.275 53.0776 101.393 47.0779C101.511 41.0344 101.629 28.0716 101.669 18.2619C101.747 8.40837 101.905 0.262808 102.062 0.175221C102.18 0.0876346 103.165 0.788328 104.227 1.79557Z" fill="white"/>
<path d="M98.5588 2.93417C98.7163 4.59832 98.8344 7.09454 98.8344 8.58351C98.8344 11.8242 98.5194 12.1746 93.5201 15.1087C91.5519 16.2473 89.2687 17.6925 88.4027 18.3494C85.2929 20.6705 85.411 20.8456 85.5291 14.3642L85.6471 8.58351L90.1741 5.47418C92.6934 3.81004 95.4096 1.88313 96.2756 1.18244C97.1417 0.525536 97.929 1.59272e-05 98.0864 1.59272e-05C98.2045 1.59272e-05 98.4407 1.31382 98.5588 2.93417Z" fill="white"/>
<path d="M98.5586 16.5101C98.716 16.6415 98.8341 18.9625 98.8341 21.6339C98.8341 27.0643 99.1491 26.4512 95.3307 28.816C94.3466 29.4291 91.8272 30.9619 89.7802 32.2757C87.7333 33.5457 85.9225 34.5967 85.7257 34.5967C85.5682 34.5967 85.4895 32.1005 85.5288 29.035L85.6469 23.4732L88.5599 21.8091C90.1345 20.8894 92.9294 19.2691 94.7008 18.1742C98.2437 16.0284 98.2043 16.0722 98.5586 16.5101Z" fill="white"/>
<path d="M72.8535 24.4367V27.4585L70.7672 28.6847C69.665 29.3854 68.0904 30.3926 67.3424 30.9619C65.2167 32.5385 64.9806 32.3633 64.9806 29.2102C64.9806 27.7212 65.138 26.276 65.2955 26.0133C65.571 25.5753 72.1843 21.4588 72.6173 21.4588C72.7354 21.4588 72.8535 22.8164 72.8535 24.4367Z" fill="white"/>
<path d="M78.6795 24.5242C80.4116 26.0132 82.0649 27.4584 82.3011 27.8087C82.8916 28.597 83.3639 52.0264 82.8522 53.1213C82.4979 53.7782 82.0649 53.6468 78.6402 51.8075L74.8218 49.7492V36.0857C74.8218 28.378 74.9792 22.2908 75.1761 22.1594C75.3729 22.028 76.9475 23.079 78.6795 24.5242Z" fill="white"/>
<path d="M72.7748 33.3706L72.6567 36.5238L69.0352 38.801C67.0669 40.0272 65.3349 40.9469 65.2168 40.8155C65.0987 40.6841 64.9806 39.2389 64.9806 37.6186V34.6844L68.6809 32.451C70.7279 31.2248 72.4993 30.2175 72.6567 30.2175C72.7748 30.2175 72.8536 31.6189 72.7748 33.3706Z" fill="white"/>
<path d="M98.8344 35.823V41.0344L92.4179 45.0196C88.8751 47.2531 85.8833 49.0486 85.7259 49.0486C85.5684 49.0486 85.4897 46.5524 85.5291 43.5306L85.6471 38.0565L89.19 35.9544C91.1189 34.8158 93.9138 33.1516 95.3309 32.2757C96.748 31.3999 98.1258 30.6554 98.362 30.6554C98.7163 30.6554 98.8344 32.2319 98.8344 35.823Z" fill="white"/>
<path d="M72.8535 42.3044V45.5889L71.4364 46.2458C70.0586 46.9027 69.9799 46.8589 67.8148 45.4575C66.6339 44.6692 65.571 43.7934 65.4923 43.5306C65.3348 43.0489 71.5545 38.9761 72.4205 38.9761C72.6961 38.9761 72.8535 40.1585 72.8535 42.3044Z" fill="white"/>
<path d="M58.6822 41.3847C60.4142 43.7057 72.2631 51.3696 80.9233 55.7489C94.1892 62.4493 112.927 69.4124 127.846 73.1348C132.531 74.3173 129.224 75.1055 121.312 74.7552C104.975 74.0107 83.2852 65.9089 62.0676 52.6834C58.8397 50.6689 58.0917 50.3623 57.7374 50.844C56.5565 52.5082 48.9197 58.7706 43.3299 62.6244C39.5115 65.2958 26.4031 72.4779 24.6317 72.9159L23.4507 73.1786L24.7498 71.9086C25.4977 71.2079 27.0723 69.8503 28.2926 68.9307C35.9687 63.1938 51.2029 48.4792 55.2968 42.7861C56.8714 40.684 57.8162 40.246 58.6822 41.3847Z" fill="white"/>
<path d="M98.913 46.7275C98.9917 47.9099 98.9917 50.4062 98.913 52.3769L98.7555 55.9241L96.7086 57.3255C95.567 58.07 94.1892 58.6831 93.5988 58.6831C92.4965 58.6831 86.828 56.3183 85.9226 55.4862C85.6471 55.2672 85.4502 54.4352 85.529 53.6907C85.6471 52.4207 86.0801 52.0703 91.9454 48.5231C95.4095 46.4648 98.3619 44.713 98.48 44.713C98.6374 44.6692 98.8343 45.5889 98.913 46.7275Z" fill="white"/>
<path d="M30.4575 53.2965C30.615 53.6031 29.749 53.8659 28.135 54.0848C24.4347 54.5228 19.829 56.0993 16.798 57.9824C13.3732 60.1283 9.39737 64.5514 8.01961 67.8797C7.19295 69.7628 6.56311 70.6387 5.61835 71.1204C3.68948 72.1715 2.19362 71.9963 1.24886 70.6825C0.14665 69.1059 0.225379 67.9673 1.56378 65.6463C4.39805 60.9166 12.3497 55.5738 18.8843 54.0848C22.4271 53.2528 30.1426 52.7272 30.4575 53.2965Z" fill="white"/>
<path d="M98.9917 59.9093C99.3066 60.4786 98.5587 61.4421 98.0863 61.1355C97.4565 60.6976 97.5352 59.5589 98.2044 59.5589C98.5193 59.5589 98.8736 59.7341 98.9917 59.9093Z" fill="white"/>
<path d="M64.0358 61.4859C64.1539 61.7925 64.1933 63.0187 64.1146 64.2011L63.9965 66.347L61.9101 66.3032C60.7292 66.2594 59.627 66.0404 59.4301 65.8215C59.2333 65.6025 59.194 64.4201 59.3514 63.1501L59.5876 60.8728H61.7133C63.1304 60.8728 63.8784 61.048 64.0358 61.4859Z" fill="white"/>
<path d="M56.5565 61.4859C56.6746 61.7924 56.7139 63.0187 56.6352 64.2011L56.5171 66.3469L54.9819 66.4783C52.2657 66.7411 51.5965 66.3469 51.5965 64.4638C51.5965 61.1793 51.8327 60.8728 54.1946 60.8728C55.6511 60.8728 56.399 61.048 56.5565 61.4859Z" fill="white"/>
<path d="M64.4295 69.3249C64.5476 69.6752 64.587 71.0328 64.5082 72.3028L64.3901 74.6677H61.8314H59.2727V71.8211V68.9745L61.7527 68.8432C63.6028 68.7556 64.272 68.8869 64.4295 69.3249Z" fill="white"/>
<path d="M56.8714 70.2883C57.0289 71.1204 57.0289 72.5218 56.8714 73.3538L56.6352 74.8866H54.1159H51.5965V71.8211V68.7555H54.1159H56.6352L56.8714 70.2883Z" fill="white"/>
<path d="M22.7026 76.8572C23.9623 78.9593 22.1909 80.93 20.3014 79.5286C19.1204 78.6966 19.0417 77.4703 20.0258 76.5069C21.0493 75.4558 21.9547 75.5872 22.7026 76.8572Z" fill="white"/>
</svg>
